<svg xmlns="http://www.w3.org/2000/svg" width="1312" height="1312" viewBox="0 0 1312 1312" version="1.1"><path d="M 639.694 0.991 C 612.386 3.629, 584.910 13.583, 560.647 29.627 C 551.194 35.878, 533.169 53.651, 297.180 289.418 C 157.855 428.613, 41.116 545.875, 37.762 550 C 10.839 583.106, -1.950 624.476, 1.117 668.532 C 3.545 703.408, 16.469 736.005, 38.573 763 C 48.033 774.554, 547.919 1273.256, 555.500 1278.703 C 575.409 1293.007, 599.607 1303.717, 621.700 1308.004 C 672.107 1317.785, 721.597 1305.921, 761.461 1274.500 C 773.022 1265.388, 1270.274 767.402, 1277.200 758 C 1297.109 730.975, 1309.116 699.186, 1310.735 669.219 C 1311.040 663.565, 1311.675 658.701, 1312.145 658.410 C 1312.615 658.120, 1313 656.532, 1313 654.882 C 1313 653.232, 1312.614 652.121, 1312.142 652.412 C 1311.670 652.704, 1311.037 648.343, 1310.735 642.721 C 1309.087 612.063, 1296.795 579.941, 1276.210 552.500 C 1270.931 545.462, 772.589 46.424, 763 38.573 C 740.287 19.975, 710.768 6.671, 682.949 2.492 C 670.393 0.606, 650.735 -0.076, 639.694 0.991 M 641 22.614 C 633.541 23.529, 617.139 27.222, 609.599 29.684 C 597.655 33.585, 578.569 43.692, 567.966 51.730 C 561.023 56.993, 491.302 126.154, 306.391 311.203 C 78.079 539.685, 53.694 564.392, 48.049 572.953 C 36.061 591.135, 29.347 607.083, 24.875 628 C 21.655 643.063, 21.657 668.956, 24.880 684 C 30.328 709.432, 40.212 730.016, 56.572 750 C 59.498 753.575, 174.079 868.595, 311.196 1005.600 C 496.846 1191.098, 562.798 1256.400, 569.500 1261.357 C 579.430 1268.702, 598.379 1278.543, 610 1282.389 C 625.709 1287.587, 637.192 1289.352, 655.500 1289.381 C 667.963 1289.401, 674.902 1288.928, 681.500 1287.608 C 708.160 1282.276, 731.293 1271.147, 751.500 1253.935 C 763.086 1244.065, 1251.714 754.736, 1257.707 747 C 1273.226 726.970, 1282.261 707.537, 1286.934 684.130 C 1295.098 643.241, 1285.200 600.999, 1259.437 566.783 C 1256.835 563.327, 1141.935 447.631, 1004.103 309.680 C 737.297 42.642, 745.755 50.825, 725 39.671 C 704.247 28.518, 683.037 22.953, 659.500 22.484 C 651.250 22.319, 642.925 22.378, 641 22.614 M 687.677 309.250 C 680.244 329.062, 607 534.653, 607 535.705 C 607 536.787, 609.097 537.011, 617.132 536.785 L 627.264 536.500 668.502 421.500 C 691.183 358.250, 709.547 306.163, 709.311 305.750 C 709.075 305.337, 704.470 305, 699.077 305 L 689.272 305 687.677 309.250 M 515.750 370.674 L 447 403.321 447 411.011 L 447 418.700 514.750 450.995 C 552.013 468.757, 583.303 483.506, 584.285 483.771 C 585.931 484.214, 586.048 483.406, 585.785 473.441 L 585.500 462.631 531.750 437.139 C 502.188 423.118, 478.011 411.389, 478.025 411.074 C 478.039 410.758, 502.226 398.995, 531.775 384.933 L 585.500 359.367 585.784 348.683 C 585.940 342.807, 585.715 338.006, 585.284 338.013 C 584.853 338.021, 553.563 352.718, 515.750 370.674 M 730.216 348.655 L 730.500 359.310 784.240 384.905 C 813.797 398.982, 837.985 410.767, 837.990 411.092 C 837.996 411.418, 813.813 423.168, 784.250 437.204 L 730.500 462.723 730.215 473.487 C 729.951 483.460, 730.063 484.217, 731.741 483.778 C 732.737 483.517, 764.028 468.726, 801.276 450.908 L 869 418.511 868.996 411.005 L 868.992 403.500 800.246 370.744 C 762.436 352.729, 731.147 337.991, 730.716 337.994 C 730.285 337.997, 730.060 342.795, 730.216 348.655 M 740 630.500 L 740 736 756.987 736 L 773.973 736 774.237 702.615 L 774.500 669.229 811.500 702.595 L 848.500 735.961 870.691 735.981 C 883.532 735.992, 893.127 735.603, 893.465 735.057 C 893.785 734.539, 873.787 716.937, 849.024 695.943 C 824.261 674.948, 804 657.451, 804 657.061 C 804 656.670, 824.025 639.371, 848.500 618.618 C 872.975 597.864, 893 580.460, 893 579.942 C 893 579.379, 883.635 579.002, 869.750 579.005 L 846.500 579.010 810.500 612.199 L 774.500 645.388 774.242 585.194 L 773.984 525 756.992 525 L 740 525 740 630.500 M 742 630.500 L 742 734 757 734 L 772 734 772 699.417 C 772 677.030, 772.349 664.951, 772.990 665.167 C 773.535 665.350, 791.081 680.922, 811.981 699.771 L 849.981 734.041 869.791 733.771 L 889.601 733.500 844.796 695.515 C 820.153 674.623, 800.105 657.217, 800.245 656.835 C 800.385 656.453, 809.725 648.322, 821 638.765 C 832.275 629.209, 852.213 612.303, 865.306 601.195 L 889.111 581 868.306 581.057 L 847.500 581.115 811 615.005 C 790.925 633.644, 773.938 648.918, 773.250 648.947 C 772.263 648.989, 772 636.161, 772 588 L 772 527 757 527 L 742 527 742 630.500 M 333 576.989 C 293.735 580.509, 262.540 603.913, 254.346 636 C 253.574 639.025, 252.667 647.181, 252.332 654.124 C 251.835 664.416, 252.056 668.108, 253.526 674.108 C 257.398 689.907, 263.262 700.425, 274.419 711.581 C 288.176 725.339, 305.554 733.764, 326.692 736.925 C 341.801 739.184, 363.619 737.695, 378 733.423 C 389.198 730.097, 403.107 721.893, 411.250 713.810 L 416 709.095 416 722.548 L 416 736 433 736 L 450 736 450 657.500 L 450 579 433 579 L 416 579 415.997 592.250 L 415.995 605.500 412.247 601.378 C 396.114 583.629, 365.167 574.105, 333 576.989 M 594 577.072 C 574.751 578.836, 552.374 588.536, 540.750 600.156 L 536 604.905 536 591.952 L 536 579 519 579 L 502 579 502 694 L 502 809 519 809 L 536 809 536 759.292 L 536 709.584 540.250 713.674 C 557.697 730.465, 583.567 739.062, 612.500 737.684 C 619.100 737.370, 627.650 736.433, 631.500 735.603 C 674.295 726.373, 700 696.241, 700 655.306 C 700 634.011, 691.800 615.419, 675.885 600.634 C 664.072 589.660, 645.850 581.007, 628.500 578.134 C 619.079 576.574, 604.372 576.121, 594 577.072 M 975.311 577.094 C 954.025 578.992, 936.891 586.078, 926.168 597.416 C 917.577 606.500, 914.580 616.690, 916.993 628.617 C 919.124 639.149, 925.640 647.214, 937.500 654 C 944.928 658.250, 964.128 664.362, 981.500 668.008 C 1019.784 676.042, 1030.167 681.234, 1030.167 692.342 C 1030.167 698.132, 1028.038 702.064, 1022.829 705.895 C 1014.257 712.199, 1009.221 713.436, 992 713.470 C 977.291 713.498, 976.092 713.350, 968.500 710.560 C 958.863 707.019, 951.232 700.197, 948.825 692.973 L 947.335 688.500 930.493 688.225 C 921.229 688.074, 913.311 688.299, 912.896 688.725 C 912.482 689.151, 912.566 691.750, 913.083 694.500 C 916.718 713.837, 935.341 728.913, 963.264 735.123 C 982.086 739.310, 1011.307 738.530, 1026.649 733.433 C 1054.394 724.215, 1068.071 705.438, 1062.598 684.077 C 1060.524 675.982, 1055.986 669.645, 1048.434 664.300 C 1039.904 658.261, 1030.021 654.537, 1009 649.440 C 967.087 639.275, 961.645 637.379, 955.172 630.686 C 949.634 624.959, 949.148 616.438, 954.059 611.167 C 960.795 603.937, 971.224 600.579, 987 600.559 C 1005.305 600.536, 1016.909 605.154, 1023.769 615.193 C 1025.387 617.562, 1027.022 621.188, 1027.401 623.250 L 1028.091 627 1045.183 627 L 1062.275 627 1061.604 621.284 C 1061.220 618.020, 1059.458 612.505, 1057.498 608.429 C 1049.159 591.091, 1029.243 579.844, 1001.919 577.040 C 990.760 575.894, 988.721 575.899, 975.311 577.094 M 334 579.014 C 305.396 581.494, 279.340 595.436, 266.520 615.120 C 257.879 628.388, 255.256 636.783, 254.373 654 C 253.923 662.767, 254.169 667.163, 255.407 672.500 C 264.751 712.764, 302.134 737.989, 349.138 735.747 C 369.553 734.773, 383.706 730.521, 398.199 721.006 C 402.344 718.285, 408.132 713.571, 411.061 710.530 C 413.990 707.488, 416.749 705, 417.193 705 C 417.637 705, 418 711.525, 418 719.500 L 418 734 433 734 L 448 734 448 657.500 L 448 581 433 581 L 418 581 418 595 C 418 602.700, 417.647 609, 417.217 609 C 416.786 609, 413.298 605.934, 409.467 602.187 C 391.565 584.681, 364.497 576.370, 334 579.014 M 594.774 579.134 C 574.088 580.962, 551.602 591.400, 539.591 604.750 C 537.488 607.087, 535.370 609, 534.884 609 C 534.398 609, 534 602.700, 534 595 L 534 581 519 581 L 504 581 504 694 L 504 807 519 807 L 534 807 534 756 C 534 724.448, 534.362 705, 534.950 705 C 535.473 705, 537.610 707.046, 539.700 709.546 C 549.244 720.965, 570.906 731.736, 590.001 734.557 C 619.636 738.934, 647.921 732.290, 669.500 715.883 C 682.514 705.988, 692.979 688.967, 696.339 672.230 C 704.762 630.283, 680.777 594.507, 635.863 582.023 C 629.757 580.326, 609.076 577.685, 605.500 578.146 C 604.950 578.217, 600.123 578.662, 594.774 579.134 M 976 579.116 C 956.889 580.808, 938.965 587.992, 928.956 597.972 C 919.598 607.302, 916.461 617.444, 919.392 628.887 C 920.248 632.225, 922.028 636.668, 923.349 638.760 C 925.698 642.482, 933.022 648.632, 940 652.743 C 946.095 656.333, 964.386 661.978, 983.255 666.092 C 1020.346 674.178, 1029.749 678.519, 1032.023 688.604 C 1034.682 700.390, 1026.195 710.149, 1009.540 714.458 C 1001.554 716.524, 981.427 716.521, 973.460 714.453 C 959.661 710.871, 950.517 704.039, 947.264 694.881 L 945.531 690 930.134 690 L 914.737 690 915.242 693.750 C 916.981 706.644, 929.917 720.346, 947.274 727.682 C 961.594 733.734, 971.844 735.485, 992.500 735.408 C 1008.571 735.348, 1011.532 735.064, 1020.127 732.759 C 1042.308 726.811, 1055.638 716.457, 1060.159 701.663 C 1063.530 690.631, 1061.355 680.738, 1053.724 672.388 C 1043.921 661.662, 1034.407 657.672, 997.972 649.004 C 957.779 639.443, 949.070 634.515, 948.646 621.098 C 948.444 614.724, 950.528 610.452, 955.803 606.424 C 967.456 597.526, 993.042 595.477, 1010.449 602.047 C 1019.812 605.581, 1027.759 614.024, 1029.467 622.250 L 1030.038 625 1045.019 625 C 1061.830 625, 1060.932 625.541, 1058.407 616.932 C 1052.168 595.667, 1031.740 582.202, 1000.919 579.040 C 989.823 577.901, 989.722 577.901, 976 579.116 M 333.500 600.410 C 309.473 605.707, 292.621 620.356, 286.629 641.154 C 284.370 648.995, 284.468 664.627, 286.830 673.144 C 293.222 696.194, 314.677 712.375, 342.219 714.916 C 378.271 718.243, 407.353 701.556, 415.468 672.886 C 419.156 659.854, 417.461 642.895, 411.231 630.500 C 404.430 616.968, 390.291 606.350, 372.500 601.412 C 364.527 599.199, 341.660 598.612, 333.500 600.410 M 584 600.373 C 557.656 606.488, 540.021 622.452, 535.575 644.208 C 528.895 676.898, 546.866 704.314, 580.722 713.082 C 590.501 715.614, 609.368 715.858, 619 713.576 C 632.291 710.427, 642.374 705.274, 650.135 697.665 C 661.535 686.487, 666.950 673.353, 666.983 656.799 C 667.005 645.479, 665.594 639.082, 661.182 630.500 C 654.228 616.975, 639.775 606.095, 622.500 601.383 C 614.626 599.235, 591.514 598.629, 584 600.373 M 336.075 602.087 C 322.881 604.676, 312.114 610.041, 303.158 618.490 C 292.221 628.807, 287 640.881, 287 655.855 C 287 672.867, 291.392 683.668, 302.918 695 C 315.881 707.745, 330.067 713.080, 351 713.080 C 388.973 713.080, 415.263 690.159, 415.229 657.085 C 415.201 629.472, 396.959 608.802, 367.069 602.515 C 359.348 600.890, 343.303 600.669, 336.075 602.087 M 584.500 602.457 C 559.469 608.225, 541.817 624.304, 537.567 645.208 C 535.710 654.344, 535.629 658.121, 537.103 666.918 C 539.922 683.749, 550.553 697.342, 567.222 705.430 C 578.948 711.120, 587.444 713.083, 600.342 713.083 C 621.098 713.083, 637.036 707.203, 649.058 695.110 C 659.999 684.105, 665 671.921, 665 656.273 C 665 631.094, 648.181 610.666, 621.500 603.438 C 613.298 601.215, 592.304 600.659, 584.500 602.457 M 207 852 L 207 873 210 873 C 211.650 873, 213 872.573, 213 872.051 C 213 871.529, 214.674 871.802, 216.721 872.657 C 223.613 875.536, 233.403 872.667, 237.040 866.701 C 239.661 862.404, 239.693 853.571, 237.102 849.641 C 232.920 843.298, 224.358 840.570, 217.554 843.413 C 215.465 844.286, 213.586 845, 213.378 845 C 213.170 845, 213 841.850, 213 838 L 213 831 210 831 L 207 831 207 852 M 259.714 831.619 C 258.269 833.064, 259.054 836.958, 261 838 C 264.058 839.637, 267.201 837.572, 266.810 834.183 C 266.559 832.011, 265.922 831.443, 263.464 831.203 C 261.794 831.039, 260.107 831.227, 259.714 831.619 M 341.039 832.928 C 338.948 836.835, 342.873 840.209, 346.962 838.020 C 349.053 836.901, 349.459 835.360, 348.393 832.582 C 347.514 830.292, 342.318 830.536, 341.039 832.928 M 572 836.934 C 572 842.738, 571.892 843, 569.500 843 C 567.500 843, 567 843.500, 567 845.500 C 567 847.500, 567.500 848, 569.500 848 L 572 848 572 860.500 L 572 873 575 873 L 578 873 578 860.500 L 578 848 580.500 848 C 582.500 848, 583 847.500, 583 845.500 C 583 843.514, 582.497 843, 580.550 843 C 578.269 843, 578.079 842.604, 577.800 837.250 C 577.516 831.807, 577.353 831.483, 574.750 831.184 C 572.017 830.869, 572 830.906, 572 836.934 M 622.607 832.582 C 621.069 836.589, 623.617 839.436, 627.769 838.350 C 632.440 837.129, 631.025 831, 626.072 831 C 624.388 831, 622.965 831.650, 622.607 832.582 M 635 852 L 635 873 638 873 L 641 873 641 852 L 641 831 638 831 L 635 831 635 852 M 828 838.523 L 828 846.046 825.348 844.309 C 821.944 842.078, 813.555 842.067, 809.347 844.288 C 804.745 846.716, 801.769 852.106, 801.769 858.015 C 801.769 864.218, 804.367 868.794, 809.556 871.733 C 814.201 874.364, 818.653 874.590, 823.766 872.453 C 826.159 871.453, 827.592 871.277, 827.818 871.953 C 828.010 872.529, 829.479 873, 831.083 873 L 834 873 834 852 L 834 831 831 831 L 828 831 828 838.523 M 947 852 L 947 873 949.500 873 L 952 873 952 852 L 952 831 949.500 831 L 947 831 947 852 M 995 837 C 995 842.733, 994.889 843, 992.500 843 C 990.500 843, 990 843.500, 990 845.500 C 990 847.500, 990.500 848, 992.500 848 L 995 848 995 860.500 L 995 873 998 873 L 1001 873 1001 860.500 L 1001 848 1003.500 848 C 1005.500 848, 1006 847.500, 1006 845.500 C 1006 843.500, 1005.500 843, 1003.500 843 C 1001.111 843, 1001 842.733, 1001 837 L 1001 831 998 831 L 995 831 995 837 M 1008.714 831.619 C 1007.269 833.064, 1008.054 836.958, 1010 838 C 1013.058 839.637, 1016.201 837.572, 1015.810 834.183 C 1015.559 832.011, 1014.922 831.443, 1012.464 831.203 C 1010.794 831.039, 1009.107 831.227, 1008.714 831.619 M 252.669 842.664 C 252.304 843.029, 250.204 843.257, 248.003 843.171 L 244 843.014 244 858.007 L 244 873 246.387 873 C 248.725 873, 248.781 872.788, 249.159 862.580 C 249.579 851.238, 251.006 848, 255.588 848 C 258.303 848, 259.976 844.233, 257.857 842.890 C 256.230 841.860, 253.589 841.744, 252.669 842.664 M 281.520 843.566 C 279.597 844.569, 278.415 844.744, 278.187 844.060 C 277.992 843.477, 276.521 843, 274.917 843 L 272 843 272 858 L 272 873 275 873 L 278 873 278 863.423 C 278 854.171, 278.099 853.747, 280.923 850.923 C 284.743 847.103, 289.060 846.990, 291.927 850.635 C 293.706 852.896, 294 854.669, 294 863.135 C 294 872.991, 294.002 873, 296.500 873 L 299 873 298.985 861.750 C 298.968 848.936, 298.094 846.314, 292.986 843.752 C 288.688 841.596, 285.401 841.543, 281.520 843.566 M 314.500 843.484 C 312.300 844.301, 310.406 844.977, 310.292 844.985 C 310.178 844.993, 308.940 846.952, 307.542 849.338 C 303.131 856.865, 304.506 865.686, 310.834 870.460 C 314.429 873.171, 323.646 873.751, 327.930 871.536 C 331.179 869.856, 331.180 869.857, 330.486 872.178 C 329.121 876.739, 326.355 878.500, 320.553 878.500 C 316.338 878.500, 314.638 878.009, 312.766 876.250 C 310.451 874.075, 305 873.103, 305 874.865 C 305 876.497, 309.177 881.040, 312.039 882.520 C 315.781 884.455, 325.293 884.417, 329.094 882.451 C 335.099 879.346, 335.992 876.280, 335.996 858.750 L 336 843 333.500 843 C 331.928 843, 331 843.565, 331 844.523 C 331 845.872, 330.743 845.878, 328.750 844.574 C 325.255 842.287, 319.008 841.809, 314.500 843.484 M 362.735 844.002 C 359.635 845.664, 359 845.749, 359 844.502 C 359 843.567, 358.057 843, 356.500 843 L 354 843 354 858 L 354 873 356.500 873 C 358.806 873, 359.006 872.631, 359.073 868.250 C 359.227 858.235, 360.541 852.792, 363.398 850.334 C 366.777 847.428, 371.083 847.330, 373.595 850.102 C 375.154 851.823, 375.562 854.093, 375.841 862.602 C 376.176 872.827, 376.222 873, 378.591 873 C 380.994 873, 381 872.974, 380.985 861.750 C 380.968 848.936, 380.094 846.314, 374.986 843.752 C 370.453 841.478, 367.325 841.542, 362.735 844.002 M 396.500 843.503 C 387.096 846.830, 383.564 858.580, 389.325 867.373 C 392.468 872.170, 402.038 874.457, 408.574 871.972 C 411.946 870.690, 412.632 871.317, 411.229 874.396 C 409.017 879.251, 398.355 880.260, 394.482 875.980 C 392.819 874.143, 387 873.138, 387 874.688 C 387 876.639, 391.870 882.099, 394.399 882.985 C 399.740 884.855, 408.351 884.238, 412.102 881.715 C 416.963 878.447, 417.879 874.690, 417.944 857.750 L 418 843 415 843 C 413.350 843, 412 843.397, 412 843.882 C 412 844.367, 410.313 844.162, 408.250 843.426 C 403.501 841.731, 401.470 841.745, 396.500 843.503 M 478 843.022 C 473.920 843.974, 468.431 849.762, 467.473 854.122 C 465.820 861.648, 470.691 870.753, 477.587 873.029 C 485.703 875.707, 495.497 871.085, 498.041 863.375 C 500.591 855.648, 496.558 846.385, 489.329 843.364 C 485.739 841.864, 483.278 841.790, 478 843.022 M 544.639 842.694 C 544.258 843.076, 542.158 843.282, 539.973 843.153 L 536 842.919 536 857.959 L 536 873 538.909 873 L 541.818 873 542.159 862.602 C 542.523 851.518, 543.775 848.476, 548.252 847.806 C 551.172 847.369, 552.958 844.235, 551 842.987 C 549.241 841.866, 545.634 841.700, 544.639 842.694 M 598 842.727 C 594.576 843.349, 589.311 847.498, 587.499 851.002 C 586.675 852.596, 586 855.741, 586 857.990 C 586 869.598, 597.623 877.109, 608.532 872.551 C 610.439 871.754, 612 871.529, 612 872.051 C 612 872.573, 613.350 873, 615 873 L 618 873 618 858 L 618 843 615 843 C 613.350 843, 612 843.406, 612 843.902 C 612 844.398, 609.903 844.173, 607.341 843.402 C 602.570 841.966, 602.295 841.946, 598 842.727 M 656.619 842.983 C 647.460 845.890, 643.376 856.936, 648.063 866.124 C 651.973 873.788, 663.662 876.225, 671.100 870.929 C 679.446 864.986, 679.321 851.047, 670.864 844.745 C 667.853 842.500, 660.863 841.636, 656.619 842.983 M 689.223 843.557 C 687.977 844.429, 687 844.649, 687 844.057 C 687 843.476, 685.875 843, 684.500 843 L 682 843 682 858 L 682 873 684.366 873 C 686.664 873, 686.747 872.711, 687.211 863.061 C 687.748 851.919, 689.372 848, 693.456 848 C 695.034 848, 696.098 847.267, 696.540 845.875 C 697.714 842.176, 693.224 840.754, 689.223 843.557 M 722.750 843.447 C 721.237 844.236, 720 844.458, 720 843.941 C 720 843.423, 718.650 843, 717 843 L 714 843 714 858 L 714 873 717 873 L 720 873 720 863.146 C 720 854.072, 720.194 853.083, 722.452 850.646 C 725.161 847.723, 728.597 847.254, 731.540 849.405 C 733.190 850.612, 733.515 852.379, 733.842 861.905 C 734.210 872.666, 734.290 873, 736.494 873 C 738.682 873, 738.783 872.619, 739.174 862.879 C 739.559 853.297, 739.728 852.631, 742.346 850.379 C 745.536 847.635, 749.169 847.312, 751.429 849.571 C 752.665 850.808, 753 853.470, 753 862.071 L 753 873 756 873 L 759 873 759 862.468 C 759 850.285, 757.637 845.898, 753.128 843.566 C 748.840 841.349, 745.849 841.613, 741.449 844.599 C 738.058 846.900, 737.487 847.020, 736.478 845.639 C 733.928 842.151, 727.271 841.089, 722.750 843.447 M 776 842.685 C 772.542 843.371, 767.296 847.526, 765.499 851.002 C 762.229 857.325, 764.652 866.878, 770.544 870.900 C 775.367 874.191, 782.366 874.724, 787.250 872.174 C 790.183 870.642, 791 870.519, 791 871.608 C 791 872.426, 792.030 873, 793.500 873 L 796 873 796 858 L 796 843 793.500 843 C 791.928 843, 791 843.565, 791 844.523 C 791 845.872, 790.743 845.878, 788.750 844.574 C 786.198 842.903, 779.727 841.945, 776 842.685 M 847.074 844.186 C 832.753 851.674, 838.241 874, 854.403 874 C 859.054 874, 861.947 872.788, 865.289 869.442 C 870.429 864.295, 866.515 860.706, 860.908 865.424 C 856.762 868.913, 850.875 868.966, 847.455 865.545 C 842.546 860.637, 843.709 860, 857.588 860 L 870.176 860 869.513 855.750 C 867.787 844.684, 856.875 839.061, 847.074 844.186 M 892.210 844.269 C 890.951 845.614, 889.658 848.332, 889.337 850.310 C 888.718 854.126, 890.059 855.928, 897.902 861.823 C 900.466 863.750, 900.817 864.474, 899.961 866.073 C 898.799 868.243, 895.887 868.571, 893.119 866.842 C 890.757 865.367, 888 866.396, 888 868.753 C 888 871.180, 892.981 874, 897.268 874 C 901.898 874, 906 869.981, 906 865.445 C 906 860.564, 905.276 859.386, 899.902 855.525 C 897.206 853.588, 895 851.313, 895 850.470 C 895 848.079, 897.865 847.568, 900.073 849.566 C 902.003 851.313, 902.138 851.307, 904.060 849.384 C 906.046 847.399, 906.045 847.391, 903.668 845.158 C 902.358 843.928, 899.760 842.674, 897.893 842.373 C 895.165 841.933, 894.051 842.305, 892.210 844.269 M 920.500 843.452 C 910.433 847.142, 907.258 859.702, 914.171 868.491 C 920.413 876.426, 933.620 875.524, 939.293 866.774 C 947.767 853.705, 935.171 838.075, 920.500 843.452 M 1030.500 843.454 C 1019.820 847.374, 1017.109 861.309, 1025.411 869.611 C 1032.533 876.733, 1046.846 874.399, 1050.560 865.510 C 1056.328 851.706, 1044.237 838.412, 1030.500 843.454 M 1066.520 843.566 C 1064.597 844.569, 1063.415 844.744, 1063.187 844.060 C 1062.992 843.477, 1061.521 843, 1059.917 843 L 1057 843 1057 858 L 1057 873 1059.906 873 L 1062.813 873 1063.156 862.912 C 1063.484 853.292, 1063.630 852.712, 1066.306 850.412 C 1070.073 847.174, 1074.274 847.262, 1076.927 850.635 C 1078.706 852.896, 1079 854.669, 1079 863.135 L 1079 873 1082.149 873 L 1085.297 873 1084.728 861.446 C 1084.089 848.464, 1082.984 845.727, 1077.454 843.416 C 1073.095 841.595, 1070.225 841.635, 1066.520 843.566 M 1092.635 844.073 C 1090.528 845.729, 1090 846.996, 1090 850.385 C 1090 854.833, 1091.967 857.445, 1098.250 861.341 C 1101.351 863.263, 1101.740 865.141, 1099.434 867.055 C 1098.156 868.115, 1097.217 868.119, 1094.324 867.073 C 1091.267 865.967, 1090.559 866.012, 1089.172 867.400 C 1087.694 868.877, 1087.734 869.179, 1089.670 871.114 C 1090.927 872.372, 1093.560 873.422, 1096.205 873.720 C 1099.870 874.133, 1101.089 873.812, 1103.271 871.859 C 1104.803 870.489, 1106.183 867.931, 1106.564 865.760 C 1107.156 862.381, 1106.879 861.704, 1103.704 858.760 C 1101.770 856.967, 1098.909 854.519, 1097.344 853.319 C 1094.669 851.268, 1094.600 851.036, 1096.190 849.415 C 1097.789 847.784, 1098.022 847.784, 1100.507 849.413 C 1102.571 850.765, 1103.441 850.879, 1104.567 849.944 C 1106.842 848.056, 1106.253 846.125, 1102.750 843.989 C 1098.598 841.458, 1095.931 841.480, 1092.635 844.073 M 260 858 L 260 873 263 873 L 266 873 266 858 L 266 843 263 843 L 260 843 260 858 M 342 858 L 342 873 344.500 873 L 347 873 347 858 L 347 843 344.500 843 L 342 843 342 858 M 436 843.317 C 436 843.561, 438.649 849.715, 441.886 856.993 L 447.772 870.226 444.886 876.591 C 443.299 880.092, 442 883.191, 442 883.478 C 442 883.765, 443.289 884, 444.865 884 C 447.619 884, 448.073 883.242, 456.615 864.358 C 461.502 853.554, 465.661 844.297, 465.857 843.786 C 466.054 843.275, 464.720 843.002, 462.893 843.179 C 459.740 843.484, 459.367 843.968, 455.536 852.727 C 453.316 857.801, 451.265 861.964, 450.979 861.977 C 450.692 861.989, 448.645 857.837, 446.429 852.750 C 442.650 844.070, 442.205 843.481, 439.201 843.187 C 437.440 843.014, 436 843.073, 436 843.317 M 504 854.050 C 504 866.845, 505.242 870.368, 510.534 872.579 C 517.126 875.333, 524.010 873.961, 528.502 868.998 C 530.212 867.109, 530.551 865.077, 530.855 854.895 L 531.211 843 528.605 843 C 526.023 843, 526 843.068, 525.994 850.750 C 525.985 864.300, 523.978 868, 516.638 868 C 514.056 868, 512.605 867.313, 511.073 865.365 C 509.294 863.104, 509 861.331, 509 852.865 C 509 843.009, 508.998 843, 506.500 843 L 504 843 504 854.050 M 624 858 L 624 873 626.500 873 L 629 873 629 858 L 629 843 626.500 843 L 624 843 624 858 M 958.004 853.750 C 958.007 862.768, 958.333 865.033, 960.026 867.810 C 963.528 873.554, 971.848 875.590, 978.643 872.365 C 983.830 869.904, 985.274 866.147, 985.800 853.750 L 986.257 843 983.128 843 L 980 843 980 853.045 C 980 862.378, 979.826 863.265, 977.545 865.545 C 974.948 868.143, 970.344 868.789, 967.039 867.021 C 964.274 865.541, 963 860.600, 963 851.351 C 963 843.110, 962.967 843, 960.500 843 L 958 843 958.004 853.750 M 1009 858 L 1009 873 1012 873 L 1015 873 1015 858 L 1015 843 1012 843 L 1009 843 1009 858 M 217.973 849.704 C 214.114 852.364, 213.066 854.196, 213.032 858.349 C 212.966 866.371, 222.971 870.957, 229.440 865.869 C 233.174 862.932, 234.322 859.506, 232.958 855.372 C 230.777 848.765, 223.389 845.971, 217.973 849.704 M 315.217 849.561 C 309.347 853.672, 308.855 861.017, 314.150 865.473 C 320.919 871.169, 330.544 866.208, 330.287 857.156 C 330.086 850.067, 321.018 845.497, 315.217 849.561 M 396.826 849.712 C 392.167 852.603, 390.818 857.814, 393.425 862.855 C 395.919 867.678, 401.722 869.229, 407.020 866.490 C 410.653 864.611, 412 862.176, 412 857.489 C 412 849.931, 403.497 845.573, 396.826 849.712 M 476.400 851.400 C 471.924 855.876, 471.755 860.455, 475.901 864.894 C 478.251 867.410, 479.596 868, 482.978 868 C 491.051 868, 495.491 860.025, 491.335 852.990 C 487.855 847.099, 481.389 846.411, 476.400 851.400 M 596.381 849.910 C 592.009 852.576, 590.532 857.212, 592.640 861.655 C 594.773 866.150, 597.590 868, 602.299 868 C 612.179 868, 615.802 854.052, 607.093 849.548 C 603.133 847.500, 600.168 847.600, 596.381 849.910 M 655.106 850.901 C 652.519 853.317, 652 854.557, 652 858.312 C 652 862.121, 652.479 863.225, 655.077 865.411 C 660.354 869.852, 667.565 868.418, 670.853 862.274 C 672.911 858.430, 672.200 855, 668.600 851.400 C 664.124 846.924, 659.545 846.755, 655.106 850.901 M 774.973 849.704 C 771.145 852.342, 770.066 854.191, 770.032 858.173 C 770.008 860.966, 770.737 862.583, 773.077 864.923 C 779.612 871.459, 790 867.196, 790 857.978 C 790 850.103, 781.324 845.326, 774.973 849.704 M 811.826 849.712 C 806.080 853.277, 805.468 859.668, 810.400 864.600 C 813.132 867.332, 814.585 868, 817.796 868 C 821.119 868, 822.316 867.404, 824.896 864.465 C 829.127 859.647, 829.041 855.841, 824.600 851.400 C 820.720 847.520, 816.301 846.936, 811.826 849.712 M 849.451 849.131 C 848.324 849.678, 846.858 850.998, 846.193 852.063 C 845.030 853.925, 845.331 854, 853.992 854 C 858.946 854, 863 853.583, 863 853.073 C 863 852.562, 861.814 851.212, 860.365 850.073 C 857.575 847.878, 852.866 847.472, 849.451 849.131 M 919.273 851.527 C 916.145 854.655, 915.814 855.473, 916.339 858.777 C 916.718 861.161, 918.028 863.489, 919.981 865.250 C 925.408 870.142, 932.711 868.330, 935.619 861.369 C 936.819 858.498, 936.823 857.513, 935.650 854.704 C 932.573 847.340, 924.941 845.859, 919.273 851.527 M 1029.273 851.527 C 1026.145 854.655, 1025.814 855.473, 1026.339 858.777 C 1026.718 861.161, 1028.028 863.489, 1029.981 865.250 C 1035.408 870.142, 1042.711 868.330, 1045.619 861.369 C 1046.829 858.472, 1046.829 857.528, 1045.619 854.631 C 1042.499 847.162, 1035.052 845.748, 1029.273 851.527" stroke="none" fill="#000000" fill-rule="evenodd"/><path d="M 976 579.116 C 956.889 580.808, 938.965 587.992, 928.956 597.972 C 919.598 607.302, 916.461 617.444, 919.392 628.887 C 920.248 632.225, 922.028 636.668, 923.349 638.760 C 925.698 642.482, 933.022 648.632, 940 652.743 C 946.095 656.333, 964.386 661.978, 983.255 666.092 C 1020.346 674.178, 1029.749 678.519, 1032.023 688.604 C 1034.682 700.390, 1026.195 710.149, 1009.540 714.458 C 1001.554 716.524, 981.427 716.521, 973.460 714.453 C 959.661 710.871, 950.517 704.039, 947.264 694.881 L 945.531 690 930.134 690 L 914.737 690 915.242 693.750 C 916.981 706.644, 929.917 720.346, 947.274 727.682 C 961.594 733.734, 971.844 735.485, 992.500 735.408 C 1008.571 735.348, 1011.532 735.064, 1020.127 732.759 C 1042.308 726.811, 1055.638 716.457, 1060.159 701.663 C 1063.530 690.631, 1061.355 680.738, 1053.724 672.388 C 1043.921 661.662, 1034.407 657.672, 997.972 649.004 C 957.779 639.443, 949.070 634.515, 948.646 621.098 C 948.444 614.724, 950.528 610.452, 955.803 606.424 C 967.456 597.526, 993.042 595.477, 1010.449 602.047 C 1019.812 605.581, 1027.759 614.024, 1029.467 622.250 L 1030.038 625 1045.019 625 C 1061.830 625, 1060.932 625.541, 1058.407 616.932 C 1052.168 595.667, 1031.740 582.202, 1000.919 579.040 C 989.823 577.901, 989.722 577.901, 976 579.116" stroke="none" fill="#ff0000" fill-rule="evenodd"/><path d="M 594.774 579.134 C 574.088 580.962, 551.602 591.400, 539.591 604.750 C 537.488 607.087, 535.370 609, 534.884 609 C 534.398 609, 534 602.700, 534 595 L 534 581 519 581 L 504 581 504 694 L 504 807 519 807 L 534 807 534 756 C 534 724.448, 534.362 705, 534.950 705 C 535.473 705, 537.610 707.046, 539.700 709.546 C 549.244 720.965, 570.906 731.736, 590.001 734.557 C 619.636 738.934, 647.921 732.290, 669.500 715.883 C 682.514 705.988, 692.979 688.967, 696.339 672.230 C 704.762 630.283, 680.777 594.507, 635.863 582.023 C 629.757 580.326, 609.076 577.685, 605.500 578.146 C 604.950 578.217, 600.123 578.662, 594.774 579.134 M 584 600.373 C 557.656 606.488, 540.021 622.452, 535.575 644.208 C 528.895 676.898, 546.866 704.314, 580.722 713.082 C 590.501 715.614, 609.368 715.858, 619 713.576 C 632.291 710.427, 642.374 705.274, 650.135 697.665 C 661.535 686.487, 666.950 673.353, 666.983 656.799 C 667.005 645.479, 665.594 639.082, 661.182 630.500 C 654.228 616.975, 639.775 606.095, 622.500 601.383 C 614.626 599.235, 591.514 598.629, 584 600.373" stroke="none" fill="#b200ff" fill-rule="evenodd"/><path d="M 334 579.014 C 305.396 581.494, 279.340 595.436, 266.520 615.120 C 257.879 628.388, 255.256 636.783, 254.373 654 C 253.923 662.767, 254.169 667.163, 255.407 672.500 C 264.751 712.764, 302.134 737.989, 349.138 735.747 C 369.553 734.773, 383.706 730.521, 398.199 721.006 C 402.344 718.285, 408.132 713.571, 411.061 710.530 C 413.990 707.488, 416.749 705, 417.193 705 C 417.637 705, 418 711.525, 418 719.500 L 418 734 433 734 L 448 734 448 657.500 L 448 581 433 581 L 418 581 418 595 C 418 602.700, 417.647 609, 417.217 609 C 416.786 609, 413.298 605.934, 409.467 602.187 C 391.565 584.681, 364.497 576.370, 334 579.014 M 333.500 600.410 C 309.473 605.707, 292.621 620.356, 286.629 641.154 C 284.370 648.995, 284.468 664.627, 286.830 673.144 C 293.222 696.194, 314.677 712.375, 342.219 714.916 C 378.271 718.243, 407.353 701.556, 415.468 672.886 C 419.156 659.854, 417.461 642.895, 411.231 630.500 C 404.430 616.968, 390.291 606.350, 372.500 601.412 C 364.527 599.199, 341.660 598.612, 333.500 600.410" stroke="none" fill="#0026ff" fill-rule="evenodd"/><path d="M 742 630.500 L 742 734 757 734 L 772 734 772 699.417 C 772 677.030, 772.349 664.951, 772.990 665.167 C 773.535 665.350, 791.081 680.922, 811.981 699.771 L 849.981 734.041 869.791 733.771 L 889.601 733.500 844.796 695.515 C 820.153 674.623, 800.105 657.217, 800.245 656.835 C 800.385 656.453, 809.725 648.322, 821 638.765 C 832.275 629.209, 852.213 612.303, 865.306 601.195 L 889.111 581 868.306 581.057 L 847.500 581.115 811 615.005 C 790.925 633.644, 773.938 648.918, 773.250 648.947 C 772.263 648.989, 772 636.161, 772 588 L 772 527 757 527 L 742 527 742 630.500" stroke="none" fill="#dd04af" fill-rule="evenodd"/><path d="" stroke="none" fill="#040404" fill-rule="evenodd"/></svg>