<svg xmlns="http://www.w3.org/2000/svg" width="529" height="529" viewBox="0 0 529 529" version="1.1"><path d="M 115.500 230.506 C 104.654 232.236, 97.339 235.316, 92.202 240.317 C 82.913 249.358, 79.280 260.235, 81.684 271.811 C 83.874 282.357, 88.121 288.088, 98.471 294.463 C 107.206 299.845, 118.083 301.853, 129.500 300.192 C 138.448 298.891, 142.586 297.089, 149.440 291.506 C 152.482 289.028, 155.203 287, 155.486 287 C 155.769 287, 156 289.700, 156 293 L 156 299 162.500 299 L 169 299 169 264.500 L 169 230 162.500 230 L 156 230 156 236.500 C 156 243.110, 155.286 244.254, 152.930 241.416 C 150.101 238.006, 142.838 233.924, 135.347 231.531 C 126.576 228.730, 126.615 228.732, 115.500 230.506 M 115.385 239.362 C 104.821 241.712, 95.562 251.366, 94.401 261.242 C 92.956 273.537, 98.342 283.515, 109.410 289.046 C 114.748 291.715, 116.266 292, 125.115 292 C 134.070 292, 135.484 291.726, 141.602 288.804 C 146.794 286.323, 148.913 284.630, 151.062 281.242 C 154.694 275.514, 156.408 268.134, 155.571 261.823 C 154.411 253.077, 152.458 249.715, 145.706 244.839 C 136.709 238.341, 127.473 236.673, 115.385 239.362" stroke="none" fill="#0026ff" fill-rule="evenodd"/><path d="M 233 230.544 C 225.098 232.758, 217.951 236.226, 213.822 239.851 C 211.850 241.583, 209.733 243, 209.118 243 C 208.409 243, 208 240.624, 208 236.500 L 208 230 201.500 230 L 195 230 195 281.500 L 195 333 201.500 333 L 208 333 208 310 C 208 291.822, 208.272 287, 209.297 287 C 210.010 287, 212.296 288.743, 214.376 290.873 C 216.802 293.358, 220.728 295.765, 225.329 297.588 C 231.488 300.028, 233.912 300.435, 242.500 300.465 C 248.288 300.485, 254.606 299.897, 257.500 299.069 C 267.518 296.202, 279.136 285.996, 282.054 277.500 C 282.809 275.300, 283.419 269.675, 283.409 265 C 283.390 255.991, 282.107 251.686, 277.417 244.893 C 269.569 233.527, 247.639 226.443, 233 230.544 M 229.456 239.396 C 222.760 241.022, 215.606 246.081, 212.647 251.282 C 209.357 257.065, 207.603 266.812, 208.952 271.821 C 210.996 279.413, 217.136 285.891, 226.177 289.994 C 232.522 292.874, 246.799 292.784, 254.117 289.818 C 262.119 286.576, 264.608 284.501, 267.428 278.726 C 272.336 268.671, 271.814 259.117, 265.846 249.778 C 262.138 243.978, 257.669 241.112, 249.646 239.390 C 242.139 237.778, 236.106 237.780, 229.456 239.396" stroke="none" fill="#b200ff" fill-rule="evenodd"/><path d="M 407.081 230.605 C 398.927 232.388, 392.722 236.021, 388.958 241.217 C 384.063 247.974, 385.391 254.700, 392.753 260.436 C 395.290 262.412, 399.196 264.525, 401.433 265.131 C 403.670 265.737, 407.143 266.834, 409.151 267.569 C 411.160 268.304, 415.150 269.216, 418.018 269.597 C 420.886 269.977, 425.768 271.064, 428.867 272.012 C 443.374 276.449, 441.114 290.763, 425.651 292.379 C 412.655 293.737, 404.071 291.087, 399.969 284.450 C 397.891 281.087, 397.672 281, 391.310 281 L 384.783 281 385.441 283.620 C 387.471 291.711, 398.261 298.471, 411.876 300.184 C 421.106 301.345, 428.506 300.625, 436.500 297.789 C 447.506 293.884, 451 289.789, 451 280.795 C 451 276.416, 450.604 275.534, 447.250 272.452 C 441.442 267.113, 438.380 265.952, 414.006 259.842 C 399.951 256.319, 395.280 249.467, 402.250 242.596 C 406.704 238.204, 415.113 236.191, 422.518 237.745 C 428.948 239.093, 435.818 243.428, 436.626 246.644 C 437.169 248.811, 437.729 249, 443.608 249 C 450.560 249, 450.881 248.644, 448.383 243.700 C 444.846 236.700, 439.033 233.002, 427.500 230.416 C 420.086 228.753, 415.346 228.797, 407.081 230.605" stroke="none" fill="#ff0000" fill-rule="evenodd"/><path d="M 305 252 L 305 299 311.500 299 L 318 299 318 284 C 318 272.407, 318.293 269, 319.292 269 C 320.002 269, 328.196 275.750, 337.500 284 L 354.416 299 362.267 299 C 366.585 299, 369.893 298.636, 369.618 298.190 C 369.342 297.745, 360.766 290.445, 350.559 281.968 C 340.351 273.491, 332 266.069, 332 265.475 C 332 264.881, 341.039 256.656, 352.087 247.198 L 372.174 230 363.337 230.017 L 354.500 230.035 337.500 246 C 328.150 254.781, 319.938 261.973, 319.250 261.983 C 318.279 261.996, 318 255.643, 318 233.500 L 318 205 311.500 205 L 305 205 305 252" stroke="none" fill="#ff006e" fill-rule="evenodd"/><path d="M 242.240 1.520 C 237.697 2.230, 232.568 3.304, 230.841 3.906 C 229.114 4.508, 226.306 5.015, 224.601 5.033 C 222.895 5.051, 219.250 5.896, 216.500 6.911 C 213.750 7.927, 207.900 10.086, 203.500 11.710 C 185.850 18.223, 167.179 30.280, 149.807 46.382 C 143.038 52.656, 115.416 79.999, 88.424 107.145 C 42.902 152.927, 38.770 157.369, 31.359 168.500 C 17.630 189.121, 13.069 198.579, 7.489 218 C 4.271 229.200, -0 256.025, -0 265.036 C 0 273.350, 4.876 303.423, 7.858 313.500 C 12.340 328.646, 18.360 340.818, 30.363 359 L 41.256 375.500 97.878 432.093 C 165.190 499.370, 170.248 503.535, 199.605 515.869 C 214.676 522.200, 223.169 524.557, 239.805 527.026 C 285.206 533.763, 331.109 522.364, 366.835 495.481 C 373.626 490.370, 392.868 471.750, 431.553 432.854 C 461.832 402.409, 488.664 375.025, 491.181 372 C 505.947 354.253, 522.197 321.947, 524.950 304.869 C 525.515 301.366, 526.434 296.925, 526.992 295 C 527.550 293.075, 528.496 285.270, 529.095 277.655 C 531.568 246.227, 525.031 213.736, 510.941 187.417 C 498.783 164.706, 498.154 163.990, 433.091 98.679 C 377.361 42.737, 371.576 37.231, 360.979 30.038 C 354.643 25.737, 347.754 21.506, 345.671 20.636 C 343.588 19.766, 340.568 18.116, 338.959 16.971 C 333.963 13.413, 316.070 7.371, 299.500 3.647 C 282.459 -0.184, 258.773 -1.064, 242.240 1.520 M 243.761 13.011 C 237.304 13.993, 230.600 15.292, 228.862 15.898 C 227.124 16.504, 224.756 17.002, 223.601 17.006 C 220.863 17.013, 203.013 23.961, 193.755 28.623 C 184.858 33.103, 173.793 40.464, 164.500 48.082 C 160.650 51.238, 132.715 78.724, 102.422 109.160 C 51.188 160.637, 46.782 165.338, 39.299 176.500 C 23.514 200.045, 14.170 226.351, 12.037 253.245 C 9.921 279.921, 15.104 306.775, 27.139 331.500 C 38.884 355.627, 40.245 357.216, 104.497 421.837 C 136.398 453.923, 165.650 482.509, 169.500 485.363 C 173.350 488.216, 179.875 492.525, 184 494.938 C 188.125 497.351, 193.525 500.570, 196 502.092 C 198.475 503.614, 201.850 505.179, 203.500 505.571 C 205.150 505.963, 208.075 507.066, 210 508.023 C 211.925 508.980, 218.501 511.174, 224.612 512.900 C 248.162 519.550, 284.647 519.415, 306.500 512.598 C 321.794 507.828, 329.366 504.805, 337.500 500.225 C 341.350 498.057, 346.750 495.017, 349.500 493.469 C 360.152 487.473, 374.431 474.158, 428.501 419.799 C 489.088 358.890, 491.625 355.964, 501.619 335.500 C 510.542 317.230, 513.798 307.487, 516.008 292.447 C 519.698 267.334, 517.711 233.333, 511.645 217.806 C 510.290 214.338, 508.852 210.375, 508.449 209 C 506.540 202.486, 497.473 185.066, 490.919 175.320 C 484.376 165.592, 477.925 158.796, 427.024 108 C 395.885 76.925, 368.178 49.664, 365.454 47.420 C 357.266 40.678, 342.198 30.979, 334.106 27.245 C 316.677 19.201, 306.273 16.153, 285.500 13.004 C 269.856 10.633, 259.386 10.634, 243.761 13.011 M 280.457 102.765 C 279.884 103.169, 271.062 127.484, 260.855 156.797 L 242.295 210.094 247.398 209.797 L 252.500 209.500 271.196 157.500 C 281.479 128.900, 289.916 104.713, 289.946 103.750 C 289.989 102.347, 289.157 102.003, 285.750 102.015 C 283.413 102.024, 281.031 102.361, 280.457 102.765 M 199.500 133.414 L 168.500 147.751 168.500 152.035 L 168.500 156.318 199.500 171.109 C 216.550 179.244, 231.063 185.923, 231.750 185.950 C 232.598 185.984, 233 184.305, 233 180.726 L 233 175.453 208.416 163.976 L 183.831 152.500 208.416 140.575 L 233 128.650 233 123.825 C 233 120.611, 232.583 119.013, 231.750 119.038 C 231.063 119.059, 216.550 125.528, 199.500 133.414 M 298 123.562 L 298 128.124 323.030 140.312 L 348.060 152.500 323.280 164.077 L 298.500 175.655 298.198 180.827 C 297.960 184.898, 298.216 186, 299.399 186 C 300.226 186, 314.874 179.370, 331.951 171.267 L 363 156.533 363 152.016 L 363 147.498 332.053 133.249 C 315.032 125.412, 300.407 119, 299.553 119 C 298.376 119, 298 120.104, 298 123.562 M 304.250 203.662 C 303.274 204.056, 303 214.786, 303 252.583 L 303 301 311.473 301 L 319.947 301 320.223 286.396 L 320.500 271.792 336.954 286.396 L 353.407 301 364.287 301 C 370.863 301, 375.035 300.617, 374.833 300.032 C 374.650 299.500, 365.594 291.647, 354.709 282.581 C 343.824 273.515, 334.903 265.812, 334.885 265.462 C 334.866 265.112, 343.772 257.193, 354.676 247.864 C 365.579 238.534, 374.645 230.248, 374.823 229.451 C 375.090 228.254, 373.292 228, 364.565 228 L 353.983 228 345.241 235.978 C 340.434 240.367, 332.788 247.400, 328.250 251.607 L 320 259.258 320 231.129 L 320 203 312.750 203.079 C 308.762 203.122, 304.938 203.385, 304.250 203.662 M 305 252 L 305 299 311.500 299 L 318 299 318 284 C 318 272.407, 318.293 269, 319.292 269 C 320.002 269, 328.196 275.750, 337.500 284 L 354.416 299 362.267 299 C 366.585 299, 369.893 298.636, 369.618 298.190 C 369.342 297.745, 360.766 290.445, 350.559 281.968 C 340.351 273.491, 332 266.069, 332 265.475 C 332 264.881, 341.039 256.656, 352.087 247.198 L 372.174 230 363.337 230.017 L 354.500 230.035 337.500 246 C 328.150 254.781, 319.938 261.973, 319.250 261.983 C 318.279 261.996, 318 255.643, 318 233.500 L 318 205 311.500 205 L 305 205 305 252 M 115 228.489 C 98.981 230.883, 90.811 235.996, 83.563 248.163 C 80.326 253.596, 78.222 262.263, 78.867 267.500 C 80.479 280.586, 86.218 289.542, 97.379 296.385 C 105.975 301.656, 115.828 303.626, 127.926 302.493 C 137.171 301.627, 141.904 299.882, 148.750 294.818 L 154 290.935 154 295.968 L 154 301 162.500 301 L 171 301 171 264.500 L 171 228 164.082 228 C 154.462 228, 154 228.280, 154 234.105 L 154 238.997 149.204 235.551 C 144.241 231.985, 130.386 226.953, 126 227.122 C 124.625 227.176, 119.675 227.791, 115 228.489 M 232.109 228.514 C 224.381 230.689, 218.062 233.642, 213.750 237.093 L 210 240.094 210 234.047 L 210 228 203.082 228 C 199.277 228, 195.452 228.273, 194.582 228.607 C 193.167 229.150, 193 234.798, 193 282.107 L 193 335 201.500 335 L 210 335 210 312.297 L 210 289.594 213.750 293.222 C 215.858 295.261, 220.565 298.079, 224.500 299.658 C 230.677 302.138, 232.793 302.470, 242.500 302.484 C 255.264 302.503, 261.341 301.065, 268.500 296.333 C 274.818 292.158, 281.600 284.309, 283.673 278.772 C 284.667 276.116, 285.306 271.096, 285.361 265.500 C 285.456 255.892, 283.905 250.843, 278.416 242.893 C 270.414 231.302, 247.494 224.185, 232.109 228.514 M 406.081 228.605 C 397.949 230.383, 391.723 234.019, 387.993 239.168 C 384.185 244.426, 383.665 246.277, 384.476 251.687 C 385.013 255.271, 386.073 257.062, 389.728 260.564 C 392.247 262.978, 396.151 265.582, 398.404 266.351 C 408.335 269.744, 412.885 271.009, 418.500 271.939 C 436.046 274.844, 441.516 280.943, 432.818 287.902 C 430.108 290.071, 428.863 290.304, 420.022 290.304 C 408.841 290.304, 404.792 288.635, 400.969 282.450 C 398.875 279.061, 398.716 279, 392 279 C 382.481 279, 381.990 279.275, 383.373 283.829 C 385.219 289.906, 390.490 295.498, 397.216 298.516 C 411.716 305.024, 434.636 303.724, 446.273 295.735 C 450.210 293.032, 453.007 286.995, 452.965 281.290 C 452.921 275.457, 451.694 273.118, 446.500 268.976 C 441.118 264.683, 438.320 263.692, 415.214 257.891 C 406.059 255.593, 401 252.250, 401 248.500 C 401 242.774, 413.710 237.682, 422.486 239.892 C 429.100 241.558, 435 245.679, 435 248.633 C 435 250.937, 435.227 251, 443.500 251 C 451.389 251, 452 250.853, 452 248.960 C 452 246.393, 448.444 239.231, 445.664 236.198 C 441.345 231.487, 427.420 227.006, 417.500 227.136 C 414.750 227.171, 409.611 227.833, 406.081 228.605 M 115.500 230.506 C 104.654 232.236, 97.339 235.316, 92.202 240.317 C 82.913 249.358, 79.280 260.235, 81.684 271.811 C 83.874 282.357, 88.121 288.088, 98.471 294.463 C 107.206 299.845, 118.083 301.853, 129.500 300.192 C 138.448 298.891, 142.586 297.089, 149.440 291.506 C 152.482 289.028, 155.203 287, 155.486 287 C 155.769 287, 156 289.700, 156 293 L 156 299 162.500 299 L 169 299 169 264.500 L 169 230 162.500 230 L 156 230 156 236.500 C 156 243.110, 155.286 244.254, 152.930 241.416 C 150.101 238.006, 142.838 233.924, 135.347 231.531 C 126.576 228.730, 126.615 228.732, 115.500 230.506 M 233 230.544 C 225.098 232.758, 217.951 236.226, 213.822 239.851 C 211.850 241.583, 209.733 243, 209.118 243 C 208.409 243, 208 240.624, 208 236.500 L 208 230 201.500 230 L 195 230 195 281.500 L 195 333 201.500 333 L 208 333 208 310 C 208 291.822, 208.272 287, 209.297 287 C 210.010 287, 212.296 288.743, 214.376 290.873 C 216.802 293.358, 220.728 295.765, 225.329 297.588 C 231.488 300.028, 233.912 300.435, 242.500 300.465 C 248.288 300.485, 254.606 299.897, 257.500 299.069 C 267.518 296.202, 279.136 285.996, 282.054 277.500 C 282.809 275.300, 283.419 269.675, 283.409 265 C 283.390 255.991, 282.107 251.686, 277.417 244.893 C 269.569 233.527, 247.639 226.443, 233 230.544 M 407.081 230.605 C 398.927 232.388, 392.722 236.021, 388.958 241.217 C 384.063 247.974, 385.391 254.700, 392.753 260.436 C 395.290 262.412, 399.196 264.525, 401.433 265.131 C 403.670 265.737, 407.143 266.834, 409.151 267.569 C 411.160 268.304, 415.150 269.216, 418.018 269.597 C 420.886 269.977, 425.768 271.064, 428.867 272.012 C 443.374 276.449, 441.114 290.763, 425.651 292.379 C 412.655 293.737, 404.071 291.087, 399.969 284.450 C 397.891 281.087, 397.672 281, 391.310 281 L 384.783 281 385.441 283.620 C 387.471 291.711, 398.261 298.471, 411.876 300.184 C 421.106 301.345, 428.506 300.625, 436.500 297.789 C 447.506 293.884, 451 289.789, 451 280.795 C 451 276.416, 450.604 275.534, 447.250 272.452 C 441.442 267.113, 438.380 265.952, 414.006 259.842 C 399.951 256.319, 395.280 249.467, 402.250 242.596 C 406.704 238.204, 415.113 236.191, 422.518 237.745 C 428.948 239.093, 435.818 243.428, 436.626 246.644 C 437.169 248.811, 437.729 249, 443.608 249 C 450.560 249, 450.881 248.644, 448.383 243.700 C 444.846 236.700, 439.033 233.002, 427.500 230.416 C 420.086 228.753, 415.346 228.797, 407.081 230.605 M 115.385 239.362 C 104.821 241.712, 95.562 251.366, 94.401 261.242 C 92.956 273.537, 98.342 283.515, 109.410 289.046 C 114.748 291.715, 116.266 292, 125.115 292 C 134.070 292, 135.484 291.726, 141.602 288.804 C 146.794 286.323, 148.913 284.630, 151.062 281.242 C 154.694 275.514, 156.408 268.134, 155.571 261.823 C 154.411 253.077, 152.458 249.715, 145.706 244.839 C 136.709 238.341, 127.473 236.673, 115.385 239.362 M 229.456 239.396 C 222.760 241.022, 215.606 246.081, 212.647 251.282 C 209.357 257.065, 207.603 266.812, 208.952 271.821 C 210.996 279.413, 217.136 285.891, 226.177 289.994 C 232.522 292.874, 246.799 292.784, 254.117 289.818 C 262.119 286.576, 264.608 284.501, 267.428 278.726 C 272.336 268.671, 271.814 259.117, 265.846 249.778 C 262.138 243.978, 257.669 241.112, 249.646 239.390 C 242.139 237.778, 236.106 237.780, 229.456 239.396 M 116.500 241.250 C 106.521 243.272, 97.435 252.529, 96.338 261.790 C 95.025 272.881, 100 281.845, 110.335 287.009 C 115.619 289.650, 117.349 290, 125.115 290 C 132.933 290, 134.649 289.647, 140.557 286.825 C 150.382 282.132, 154.934 273.635, 153.620 262.437 C 152.612 253.843, 151.354 251.640, 144.709 246.841 C 135.891 240.473, 128.026 238.914, 116.500 241.250 M 230.456 241.396 C 224.275 242.897, 216.849 247.856, 214.224 252.236 C 211.355 257.022, 209.669 267.056, 210.940 271.778 C 212.441 277.353, 218.134 283.411, 225.179 286.932 C 230.506 289.594, 232.386 290, 239.370 290 C 254.212 290, 264.398 284.135, 267.459 273.826 C 270.040 265.135, 269.062 258.073, 264.276 250.840 C 260.987 245.871, 256.288 243.030, 248.646 241.390 C 241.182 239.787, 237.070 239.789, 230.456 241.396 M 0.349 265 C 0.349 269.675, 0.522 271.587, 0.732 269.250 C 0.943 266.913, 0.943 263.087, 0.732 260.750 C 0.522 258.413, 0.349 260.325, 0.349 265 M 59.250 344.662 C 58.369 345.018, 58 348.073, 58 355.020 L 58 364.873 64.713 364.687 C 70.788 364.518, 71.563 364.256, 72.867 361.931 C 75.876 356.564, 71.382 349.503, 65.402 350.201 C 62.140 350.582, 62 350.463, 62 347.299 C 62 344.024, 61.654 343.692, 59.250 344.662 M 83.250 344.667 C 82.563 344.942, 82 346.060, 82 347.153 C 82 348.641, 82.565 349.059, 84.250 348.820 C 85.690 348.615, 86.500 347.810, 86.500 346.583 C 86.500 344.549, 85.305 343.845, 83.250 344.667 M 120.064 345.423 C 118.512 347.293, 119.497 349, 122.129 349 C 123.624 349, 124.057 348.443, 123.820 346.828 C 123.420 344.115, 121.688 343.466, 120.064 345.423 M 227.250 344.742 C 226.563 344.975, 226 346.268, 226 347.615 C 226 348.961, 225.325 350.322, 224.500 350.638 C 223.675 350.955, 223 351.616, 223 352.107 C 223 352.598, 223.675 353, 224.500 353 C 225.667 353, 226 354.333, 226 359 C 226 363.667, 226.333 365, 227.500 365 C 228.667 365, 229 363.667, 229 359 C 229 354.333, 229.333 353, 230.500 353 C 231.325 353, 232 352.325, 232 351.500 C 232 350.675, 231.354 350, 230.563 350 C 229.725 350, 228.996 348.816, 228.813 347.158 C 228.621 345.415, 228.017 344.481, 227.250 344.742 M 250.104 344.915 C 248.153 346.150, 249.502 349, 252.038 349 C 253.626 349, 254.061 348.470, 253.820 346.828 C 253.453 344.334, 252.113 343.645, 250.104 344.915 M 256.250 344.662 C 255.368 345.018, 255 348.086, 255 355.083 C 255 363.231, 255.268 365, 256.500 365 C 257.738 365, 258 363.167, 258 354.500 C 258 348.725, 257.887 344.036, 257.750 344.079 C 257.613 344.122, 256.938 344.385, 256.250 344.662 M 344.250 344.662 C 343.563 344.940, 343 346.254, 343 347.583 C 343 349.507, 342.480 350, 340.450 350 C 336.892 350, 332.266 352.588, 331.498 355.008 C 331.127 356.176, 331.627 358.622, 332.677 360.769 C 334.462 364.422, 334.631 364.506, 340.750 364.798 L 347 365.095 347 354.548 C 347 348.746, 346.663 344.036, 346.250 344.079 C 345.837 344.122, 344.938 344.385, 344.250 344.662 M 399.250 344.662 C 398.368 345.018, 398 348.086, 398 355.083 C 398 364.333, 398.134 365, 400 365 C 401.873 365, 402 364.333, 402 354.500 C 402 348.725, 401.663 344.036, 401.250 344.079 C 400.837 344.122, 399.938 344.385, 399.250 344.662 M 421.250 344.662 C 420.563 344.940, 420 346.442, 420 348 C 420 349.558, 419.438 351.096, 418.750 351.417 C 417.750 351.883, 417.750 352.117, 418.750 352.583 C 419.543 352.954, 420 355.328, 420 359.083 C 420 364.333, 420.225 365, 422 365 C 423.778 365, 424 364.333, 424 359 C 424 355.667, 424.444 353, 425 353 C 425.550 353, 426 352.325, 426 351.500 C 426 350.675, 425.550 350, 425 350 C 424.450 350, 424 348.650, 424 347 C 424 344.014, 423.632 343.701, 421.250 344.662 M 427.064 345.423 C 425.512 347.293, 426.497 349, 429.129 349 C 430.624 349, 431.057 348.443, 430.820 346.828 C 430.420 344.115, 428.688 343.466, 427.064 345.423 M 351.414 352.523 C 347.756 356.401, 347.633 358.002, 350.627 362.750 C 351.704 364.457, 352.989 365, 355.952 365 C 360.611 365, 362.684 363.200, 363.590 358.370 C 364.145 355.413, 363.853 354.412, 361.880 352.505 C 357.614 348.382, 355.315 348.386, 351.414 352.523 M 76.243 350.752 C 75.412 351.029, 75 353.458, 75 358.083 C 75 363.565, 75.311 365, 76.500 365 C 77.542 365, 78 363.952, 78 361.565 C 78 357.460, 79.549 353, 80.975 353 C 81.561 353, 82 355.570, 82 359 C 82 364.333, 82.222 365, 84 365 C 85.820 365, 86 364.333, 86 357.612 L 86 350.223 81.743 350.281 C 79.402 350.312, 76.927 350.524, 76.243 350.752 M 89.250 350.733 C 87.398 351.375, 87.513 365, 89.370 365 C 90.260 365, 90.925 363.357, 91.268 360.311 C 91.784 355.735, 94.145 352.554, 96.460 353.316 C 97.032 353.504, 97.635 356.210, 97.800 359.329 C 98.024 363.562, 98.479 365, 99.596 365 C 100.804 365, 101.035 363.709, 100.796 358.270 C 100.516 351.912, 100.346 351.487, 97.701 350.560 C 95.742 349.874, 94.339 349.932, 93.023 350.754 C 91.989 351.400, 90.998 351.562, 90.821 351.114 C 90.645 350.666, 89.938 350.495, 89.250 350.733 M 105.505 352.404 C 102.702 355.207, 102.293 358.650, 104.417 361.556 C 105.323 362.795, 105.498 363.900, 104.900 364.620 C 104.386 365.240, 104.246 366.479, 104.590 367.373 C 105.067 368.616, 106.579 369, 111 369 C 117.892 369, 118 368.833, 118 358.168 L 118 350.500 113.005 350.200 C 108.781 349.946, 107.623 350.286, 105.505 352.404 M 121.250 350.662 C 120.419 350.998, 120 353.486, 120 358.083 C 120 363.565, 120.311 365, 121.500 365 C 122.700 365, 123 363.500, 123 357.500 C 123 353.375, 122.888 350.036, 122.750 350.079 C 122.612 350.122, 121.938 350.385, 121.250 350.662 M 126.112 350.796 C 125.439 351.020, 125 353.896, 125 358.083 C 125 364.333, 125.193 365, 127 365 C 128.693 365, 129 364.333, 129 360.655 C 129 357.716, 129.592 355.775, 130.829 354.655 C 134.104 351.691, 135 352.624, 135 359 C 135 364.333, 135.222 365, 137 365 C 138.747 365, 139 364.333, 139 359.723 C 139 352.342, 137.161 349.993, 131.572 350.236 C 129.181 350.340, 126.724 350.592, 126.112 350.796 M 144.006 351.457 C 140.750 353.251, 139.970 356.694, 141.886 360.809 C 143.197 363.624, 143.218 364.247, 142.028 364.983 C 140.870 365.698, 140.854 366.120, 141.937 367.424 C 143.522 369.334, 152.990 369.610, 154.800 367.800 C 155.535 367.065, 156 363.471, 156 358.517 L 156 350.435 151.250 350.259 C 148.637 350.162, 145.378 350.701, 144.006 351.457 M 164.400 351.399 C 164.105 352.168, 165.061 355.160, 166.524 358.048 C 168.723 362.386, 168.995 363.715, 168.092 365.696 C 166.654 368.854, 166.687 369, 168.842 369 C 170.186 369, 171.675 366.770, 174.350 360.750 C 177.993 352.552, 178.686 349.986, 177.250 350.015 C 175.615 350.049, 174.289 351.679, 172.790 355.500 L 171.220 359.500 168.911 354.750 C 166.532 349.858, 165.334 348.967, 164.400 351.399 M 180.431 352.306 C 177.324 354.979, 176.942 358.737, 179.398 362.485 C 180.781 364.595, 181.821 365, 185.863 365 C 190.053 365, 190.830 364.669, 191.839 362.453 C 193.669 358.439, 193.234 354.569, 190.686 352.174 C 187.691 349.361, 183.797 349.411, 180.431 352.306 M 195.250 350.662 C 193.451 351.388, 193.671 360.086, 195.557 362.777 C 196.753 364.486, 198.104 365, 201.396 365 C 205.015 365, 205.859 364.605, 206.839 362.453 C 207.478 361.052, 208 357.629, 208 354.846 C 208 350.643, 207.732 349.889, 206.418 350.393 C 205.548 350.727, 204.648 351, 204.418 351 C 204.188 351, 204 353.280, 204 356.066 C 204 361.003, 203.930 361.125, 201.250 360.816 C 198.685 360.521, 198.480 360.147, 198.198 355.250 C 197.898 350.045, 197.668 349.687, 195.250 350.662 M 210.250 350.743 C 209.411 351.027, 209 353.443, 209 358.083 C 209 364.271, 209.205 365, 210.948 365 C 212.592 365, 212.943 364.183, 213.198 359.750 C 213.447 355.422, 213.895 354.327, 215.750 353.513 C 219.138 352.027, 218.540 350.040, 214.750 350.190 C 212.963 350.261, 210.938 350.509, 210.250 350.743 M 236.500 351.161 C 231.515 353.872, 230.508 359.249, 234.314 362.826 C 236.130 364.532, 237.853 365, 242.314 365 L 248 365 248 357.717 L 248 350.435 243.250 350.254 C 240.637 350.155, 237.600 350.563, 236.500 351.161 M 250.250 350.662 C 249.419 350.998, 249 353.486, 249 358.083 C 249 364.333, 249.193 365, 251 365 C 252.822 365, 253 364.333, 253 357.500 C 253 350.154, 252.792 349.637, 250.250 350.662 M 262.750 352.115 C 260.687 353.654, 260 355.020, 260 357.583 C 260 362.425, 262.896 365, 268.339 365 C 272.019 365, 272.855 364.613, 273.839 362.453 C 277.997 353.328, 270.496 346.336, 262.750 352.115 M 277.250 350.662 C 276.419 350.998, 276 353.486, 276 358.083 C 276 364.333, 276.193 365, 278 365 C 279.733 365, 280 364.333, 280 360.008 C 280 356.100, 280.434 354.746, 282 353.768 C 284.890 351.963, 284.488 349.986, 281.250 350.079 C 279.738 350.122, 277.938 350.385, 277.250 350.662 M 292.250 350.741 C 291.412 351.026, 291 353.444, 291 358.083 C 291 364.333, 291.193 365, 293 365 C 294.727 365, 295 364.333, 295 360.122 C 295 355.218, 296.823 352.154, 298.956 353.473 C 299.530 353.828, 300 356.566, 300 359.559 C 300 364.333, 300.245 365, 302 365 C 303.731 365, 304 364.333, 304 360.035 C 304 356.210, 304.429 354.841, 305.869 354.070 C 308.491 352.667, 309 353.577, 309 359.667 C 309 364.333, 309.250 365, 311 365 C 312.747 365, 313 364.333, 313 359.723 C 313 351.352, 311.675 350.237, 301.779 350.279 C 297.225 350.299, 292.938 350.506, 292.250 350.741 M 318.500 351.161 C 313.515 353.872, 312.508 359.249, 316.314 362.826 C 318.130 364.532, 319.853 365, 324.314 365 L 330 365 330 357.717 L 330 350.435 325.250 350.254 C 322.637 350.155, 319.600 350.563, 318.500 351.161 M 373.243 351.157 C 371.156 353.244, 371.831 356.707, 374.750 358.885 L 377.500 360.937 374.750 360.968 C 372.677 360.992, 372 361.493, 372 363 C 372 364.621, 372.667 365, 375.521 365 C 380.204 365, 382.166 361.428, 379.619 357.541 C 378.703 356.143, 377.514 355, 376.977 355 C 376.440 355, 376 354.592, 376 354.094 C 376 353.595, 376.945 353.434, 378.101 353.737 C 379.759 354.170, 380.126 353.887, 379.842 352.393 C 379.415 350.142, 375.071 349.329, 373.243 351.157 M 383.853 352.993 C 380.690 356.156, 380.647 358.024, 383.627 362.750 C 384.778 364.575, 385.955 365, 389.863 365 C 394.053 365, 394.830 364.669, 395.839 362.453 C 397.669 358.439, 397.234 354.569, 394.686 352.174 C 391.408 349.095, 387.452 349.394, 383.853 352.993 M 404.250 350.662 C 402.451 351.388, 402.671 360.086, 404.557 362.777 C 405.753 364.486, 407.104 365, 410.396 365 C 414.015 365, 414.859 364.605, 415.839 362.453 C 416.478 361.052, 417 357.629, 417 354.846 C 417 350.643, 416.732 349.889, 415.418 350.393 C 414.548 350.727, 413.648 351, 413.418 351 C 413.188 351, 413 353.280, 413 356.066 C 413 361.003, 412.930 361.125, 410.250 360.816 C 407.685 360.521, 407.480 360.147, 407.198 355.250 C 406.898 350.045, 406.668 349.687, 404.250 350.662 M 428.250 350.662 C 427.419 350.998, 427 353.486, 427 358.083 C 427 363.565, 427.311 365, 428.500 365 C 429.700 365, 430 363.500, 430 357.500 C 430 353.375, 429.887 350.036, 429.750 350.079 C 429.613 350.122, 428.938 350.385, 428.250 350.662 M 434.750 352.324 C 432.788 353.930, 432 355.496, 432 357.788 C 432 362.403, 434.994 365, 440.315 365 C 444.285 365, 444.767 364.712, 446.349 361.395 C 450.398 352.904, 442.032 346.361, 434.750 352.324 M 450.250 350.733 C 448.368 351.386, 448.517 365, 450.406 365 C 451.336 365, 452.046 363.300, 452.502 359.984 C 452.977 356.534, 453.793 354.646, 455.117 353.938 C 458.095 352.343, 459 353.653, 459 359.559 C 459 363.800, 459.341 365, 460.546 365 C 461.816 365, 462.039 363.802, 461.796 358.270 C 461.516 351.912, 461.346 351.487, 458.701 350.560 C 456.742 349.874, 455.339 349.932, 454.023 350.754 C 452.989 351.400, 451.998 351.562, 451.821 351.114 C 451.645 350.666, 450.938 350.495, 450.250 350.733 M 465.088 351.394 C 463.274 353.580, 464.157 357.350, 466.750 358.487 C 469.728 359.794, 469.608 361, 466.500 361 C 464.642 361, 464 361.529, 464 363.060 C 464 364.828, 464.530 365.077, 467.732 364.810 C 470.808 364.554, 471.639 363.999, 472.461 361.646 C 473.337 359.142, 473.124 358.503, 470.730 356.444 C 467.452 353.624, 467.308 353.006, 470.101 353.737 C 471.759 354.170, 472.126 353.887, 471.842 352.393 C 471.390 350.009, 466.800 349.331, 465.088 351.394 M 63.567 354.926 C 60.788 357.997, 61.909 360.450, 66.258 360.810 C 69.781 361.103, 70 360.953, 70 358.260 C 70 353.241, 66.659 351.509, 63.567 354.926 M 107.718 355.308 C 105.560 358.601, 107.175 361, 111.550 361 C 114.536 361, 115 360.674, 115 358.571 C 115 355.938, 112.650 353, 110.544 353 C 109.821 353, 108.550 354.039, 107.718 355.308 M 145.447 355.059 C 142.994 357.769, 144.542 360.385, 148.851 360.813 C 151.836 361.110, 152 360.947, 152 357.670 C 152 355.441, 151.438 353.998, 150.418 353.607 C 147.999 352.679, 147.458 352.837, 145.447 355.059 M 182.978 354.817 C 181.067 356.364, 180.907 356.958, 181.902 358.817 C 183.278 361.388, 188.455 361.862, 189.362 359.500 C 190.313 357.022, 188.179 353.071, 185.861 353.015 C 185.509 353.007, 184.212 353.818, 182.978 354.817 M 237.447 355.059 C 234.994 357.769, 236.542 360.385, 240.851 360.813 C 243.723 361.099, 244 360.875, 244 358.263 C 244 353.148, 240.656 351.513, 237.447 355.059 M 265.670 354.451 C 264.577 355.279, 263.973 356.777, 264.170 358.169 C 264.426 359.976, 265.222 360.570, 267.716 360.811 C 270.493 361.079, 271.024 360.751, 271.613 358.405 C 272.121 356.382, 271.826 355.346, 270.456 354.344 C 268.213 352.704, 267.968 352.709, 265.670 354.451 M 319.447 355.059 C 316.994 357.769, 318.542 360.385, 322.851 360.813 C 325.723 361.099, 326 360.875, 326 358.263 C 326 353.148, 322.656 351.513, 319.447 355.059 M 336.447 355.059 C 333.994 357.769, 335.542 360.385, 339.851 360.813 C 342.836 361.110, 343 360.947, 343 357.670 C 343 355.441, 342.438 353.998, 341.418 353.607 C 338.999 352.679, 338.458 352.837, 336.447 355.059 M 354.500 354 C 354.148 354.569, 355.009 355, 356.500 355 C 357.991 355, 358.852 354.569, 358.500 354 C 358.160 353.450, 357.260 353, 356.500 353 C 355.740 353, 354.840 353.450, 354.500 354 M 387.223 354.557 C 383.014 357.505, 384.836 361, 390.582 361 C 392.564 361, 393 360.495, 393 358.200 C 393 355.656, 391.479 353, 390.023 353 C 389.705 353, 388.445 353.701, 387.223 354.557 M 437.567 354.926 C 434.788 357.997, 435.909 360.450, 440.258 360.810 C 443.781 361.103, 444 360.953, 444 358.260 C 444 353.241, 440.659 351.509, 437.567 354.926 M 353 360 C 353.825 360.533, 355.625 360.969, 357 360.969 C 358.375 360.969, 360.175 360.533, 361 360 C 362.068 359.310, 360.916 359.031, 357 359.031 C 353.084 359.031, 351.932 359.310, 353 360 M 111 365 L 107.500 365.737 110.691 365.868 C 112.446 365.941, 114.160 365.550, 114.500 365 C 114.840 364.450, 114.979 364.059, 114.809 364.132 C 114.639 364.204, 112.925 364.595, 111 365 M 146.762 365.707 C 148.006 365.946, 149.806 365.937, 150.762 365.687 C 151.718 365.437, 150.700 365.241, 148.500 365.252 C 146.300 365.263, 145.518 365.468, 146.762 365.707" stroke="none" fill="#000000" fill-rule="evenodd"/></svg>