<svg xmlns="http://www.w3.org/2000/svg" width="305" height="305" viewBox="0 0 305 305" version="1.1"><path d="M 136.516 1.659 C 111.605 6.997, 93.185 19.617, 55.890 56.898 C 12.289 100.485, 0.470 120.916, 0.586 152.500 L 0.634 165.500 2.826 173.500 C 14.344 215.543, 88.916 290.095, 131.500 302.139 L 139.500 304.402 151.500 304.451 L 163.500 304.500 172.866 302.110 C 220.075 290.060, 304 200.726, 304 162.524 C 304 161.017, 304.430 160.148, 305 160.500 C 305.642 160.897, 305.975 157.611, 305.930 151.309 C 305.884 144.898, 305.562 142.193, 305 143.500 L 304.141 145.500 304.070 142.667 C 303.506 119.912, 284.303 91.058, 242.373 49.963 C 199.651 8.093, 169.885 -5.490, 136.516 1.659 M 143.500 4.089 C 101.359 8.797, 20.388 84.126, 6.480 131.562 L 3.859 140.500 3.806 152.022 L 3.753 163.543 5.922 171.522 C 12.318 195.049, 26.080 214.021, 63.639 251.087 C 132.514 319.058, 171.945 319.046, 241.378 251.033 C 275.313 217.793, 289.680 198.720, 297.146 177 L 300.412 167.500 300.456 153.500 L 300.500 139.500 298.636 132.500 C 295.870 122.116, 289.175 108.885, 280.419 96.500 L 272.643 85.500 247.071 59.922 C 200.280 13.119, 176.657 0.384, 143.500 4.089 M 159.580 48.871 C 158.859 50.038, 144.203 88.270, 143.810 90.012 C 143.639 90.765, 144.175 91.522, 145 91.693 L 146.500 92.006 154.250 71.655 C 158.512 60.462, 162 50.561, 162 49.652 C 162 47.900, 160.483 47.410, 159.580 48.871 M 125.994 59.506 L 115.524 70.012 126.240 80.728 C 133.433 87.921, 137.287 91.113, 137.963 90.437 C 138.639 89.761, 135.851 86.325, 129.484 79.984 L 119.998 70.538 129.624 60.876 C 137.983 52.485, 140.198 49, 137.173 49 C 136.783 49, 131.753 53.728, 125.994 59.506 M 167 50.231 C 167 50.908, 171.154 55.633, 176.230 60.731 L 185.460 70 176.230 79.269 C 167.424 88.112, 165.464 91, 168.269 91 C 169.756 91, 189 71.937, 189 70.464 C 189 69.328, 168.859 49, 167.733 49 C 167.330 49, 167 49.554, 167 50.231 M 169 142 L 169 170 174 170 L 179 170 179.033 165.250 C 179.062 161.163, 181.396 156, 183.214 156 C 183.431 156, 186.003 159.150, 188.930 163 L 194.251 170 200.147 170 L 206.044 170 198.022 159.345 C 188.482 146.674, 188.611 149.103, 196.994 140 L 203.900 132.500 198.200 132.192 L 192.500 131.884 190.096 134.692 C 188.773 136.236, 185.736 139.742, 183.346 142.483 L 179 147.466 179 130.733 L 179 114 174 114 L 169 114 169 142 M 70.500 131.019 C 50.062 135.426, 49.331 166.480, 69.564 170.793 C 74.035 171.746, 80.694 170.586, 83.064 168.442 C 85.103 166.597, 86 166.615, 86 168.500 L 86 170 91.500 170 L 97 170 97 151 L 97 132 91.500 132 L 86 132 86 133.500 C 86 135.385, 85.103 135.403, 83.064 133.558 C 80.892 131.593, 74.154 130.231, 70.500 131.019 M 132.135 131.083 C 130.284 131.474, 127.471 132.754, 125.885 133.927 L 123 136.060 123 134.030 L 123 132 118 132 L 113 132 113 159.500 L 113 187 118 187 L 123 187 123 176.470 L 123 165.940 125.839 168.039 C 141.342 179.501, 161.290 159.210, 152.144 141.282 C 150.290 137.648, 144.881 132.037, 143.173 131.976 C 142.803 131.963, 140.925 131.596, 139 131.162 C 137.075 130.727, 133.986 130.691, 132.135 131.083 M 226.638 131.513 C 211.090 135.461, 212.484 147.890, 229.105 153.501 C 233.288 154.913, 237.557 156.687, 238.592 157.444 L 240.473 158.819 238.582 160.910 C 237.275 162.353, 235.477 163, 232.768 163 L 228.846 163 225.818 159.972 L 222.789 156.943 218.320 158.222 L 213.850 159.500 216.214 163 C 217.514 164.925, 220.493 167.558, 222.834 168.850 L 227.091 171.200 232.981 171.200 C 253.938 171.200, 256.199 152.984, 235.987 146.976 C 231.869 145.752, 227.864 144.154, 227.086 143.425 L 225.672 142.100 226.958 140.550 C 228.837 138.287, 235.159 138.568, 237.804 141.032 L 239.986 143.065 244.588 141.723 L 249.191 140.381 246.488 137.168 C 241.735 131.520, 234.608 129.490, 226.638 131.513 M 70.110 141.396 C 60.763 146.576, 64.883 162, 75.613 162 C 86.266 162, 90.394 146.358, 81.020 141.510 C 77.459 139.669, 73.304 139.625, 70.110 141.396 M 128.420 141.145 C 125.551 142.537, 123 147.175, 123 151 C 123 160.655, 133.932 165.602, 140.894 159.099 L 144 156.198 144 151 L 144 145.802 140.894 142.901 L 137.788 140 134.144 140.068 C 132.140 140.105, 129.564 140.589, 128.420 141.145 M 0.365 152.500 C 0.368 158, 0.536 160.122, 0.738 157.216 C 0.941 154.311, 0.939 149.811, 0.734 147.216 C 0.528 144.622, 0.363 147, 0.365 152.500 M 70.750 212.577 C 70.338 212.993, 70 215.088, 70 217.233 L 70 221.133 72.750 220.816 C 76.256 220.413, 77.327 216.160, 74.133 215.324 C 73.019 215.033, 71.971 214.126, 71.804 213.308 C 71.637 212.490, 71.162 212.161, 70.750 212.577 M 181 213.324 C 181 214.118, 180.064 215.011, 178.921 215.310 C 175.921 216.095, 176.671 220.383, 179.887 220.837 C 181.200 221.023, 182.655 220.573, 183.122 219.837 L 183.969 218.500 183.985 219.750 C 183.993 220.461, 185.187 220.970, 186.750 220.930 L 189.500 220.859 187.500 220 L 185.500 219.141 187.250 219.070 C 189.395 218.984, 189.575 216.158, 187.487 215.357 C 186.655 215.037, 185.305 215.332, 184.487 216.011 L 183 217.245 183 215.181 C 183 214.047, 182.550 212.840, 182 212.500 C 181.450 212.160, 181 212.531, 181 213.324 M 203.667 212.667 C 203.300 213.033, 202.964 214.271, 202.921 215.417 C 202.878 216.563, 202.615 216.938, 202.338 216.250 C 201.527 214.241, 198.005 214.812, 197.163 217.088 L 196.391 219.176 194.945 217.396 C 194.054 216.298, 193.979 215.904, 194.750 216.367 C 195.438 216.780, 196 216.641, 196 216.059 C 196 214.637, 193.300 214.706, 192.406 216.152 C 192.015 216.785, 192.551 217.971, 193.597 218.786 L 195.500 220.269 193.750 219.666 C 192.787 219.334, 192 219.466, 192 219.960 C 192 220.453, 194.925 220.822, 198.500 220.780 L 205 220.704 205 216.352 C 205 211.919, 204.844 211.489, 203.667 212.667 M 81 214 C 81 214.550, 80.100 215, 79 215 L 77 215 77 218 C 77 219.650, 77.450 221, 78 221 C 78.550 221, 79 220.127, 79 219.059 C 79 217.991, 79.450 216.840, 80 216.500 C 80.567 216.149, 81 216.990, 81 218.441 C 81 219.848, 81.450 221, 82 221 C 82.550 221, 83 219.200, 83 217 C 83 214.800, 82.550 213, 82 213 C 81.450 213, 81 213.450, 81 214 M 96 217 L 96 221 98 221 C 99.333 221, 100 220.333, 100 219 C 100 217.900, 100.450 217, 101 217 C 101.550 217, 102 217.948, 102 219.107 C 102 220.536, 102.466 221.035, 103.449 220.658 C 104.370 220.304, 104.714 220.583, 104.392 221.422 C 103.795 222.977, 106.353 224.185, 108.500 223.362 C 110.188 222.714, 110.563 220, 108.965 220 C 108.251 220, 108.251 219.399, 108.965 218.066 C 110.443 215.304, 110.298 215, 107.500 215 L 105 215 104.937 217.250 L 104.873 219.500 103.927 217.138 L 102.981 214.776 99.948 215.221 L 96.914 215.666 97.426 214.333 C 97.707 213.600, 97.501 213, 96.969 213 C 96.436 213, 96 214.800, 96 217 M 216.499 213.999 C 216.838 214.548, 216.303 214.926, 215.308 214.840 C 211.400 214.501, 210 215.055, 210 216.941 C 210 218.009, 209.550 219.160, 209 219.500 C 208.433 219.851, 208 219.010, 208 217.559 C 208 216.152, 207.520 215, 206.934 215 C 206.347 215, 206.010 216.238, 206.184 217.750 L 206.500 220.500 209.173 220.809 L 211.845 221.118 212.287 218.809 L 212.728 216.500 212.864 218.750 L 213 221 215.500 221 L 218 221 218 217 C 218 214.800, 217.523 213, 216.941 213 C 216.359 213, 216.160 213.449, 216.499 213.999 M 133.684 214.703 C 133.409 215.148, 133.410 216.694, 133.686 218.139 L 134.189 220.767 138.094 220.821 L 142 220.875 142 217.937 L 142 215 139.893 215 C 138.479 215, 137.966 215.469, 138.334 216.427 C 138.635 217.212, 138.203 218.416, 137.375 219.104 L 135.869 220.354 136.184 217.532 C 136.482 214.873, 134.773 212.940, 133.684 214.703 M 84 217.930 C 84 221.483, 85.654 222.073, 86.294 218.750 L 86.728 216.500 86.864 218.750 C 86.939 219.988, 87.480 221, 88.066 221 C 90.292 221, 88.579 215.511, 86.250 215.180 L 84 214.861 84 217.930 M 90.558 216.250 C 88.888 221.748, 90.167 224.566, 93.750 223.282 C 95.348 222.709, 95.389 220, 93.800 220 L 92.600 220 93.800 218.800 C 94.460 218.140, 95 217.015, 95 216.300 C 95 214.635, 91.061 214.591, 90.558 216.250 M 112.994 217.750 C 113.484 219.262, 114.067 221.400, 114.290 222.500 L 114.696 224.500 116.201 221.146 L 117.706 217.793 118.349 219.467 C 118.748 220.506, 119.845 221.019, 121.246 220.820 L 123.500 220.500 123.500 218 L 123.500 215.500 119.750 215.350 L 116 215.200 115.970 216.850 L 115.939 218.500 114.920 216.750 C 113.307 213.981, 111.995 214.662, 112.994 217.750 M 125 218 L 125 221 127.500 221 L 130 221 130 218 C 130 216.350, 129.550 215, 129 215 C 128.450 215, 128 216.152, 128 217.559 C 128 219.147, 127.588 219.863, 126.913 219.446 C 126.315 219.077, 126.048 217.925, 126.319 216.887 C 126.591 215.849, 126.405 215, 125.906 215 C 125.408 215, 125 216.350, 125 218 M 149.667 215.667 C 149.300 216.033, 149 217.383, 149 218.667 L 149 221 151.417 221 C 152.746 221, 154.060 220.438, 154.338 219.750 L 154.842 218.500 154.921 219.750 C 155.053 221.844, 157 221.142, 157 219 C 157 217.900, 157.450 217, 158 217 C 158.550 217, 159 216.550, 159 216 C 159 215.450, 158.100 215, 157 215 C 155.900 215, 155 215.540, 155 216.200 L 155 217.400 153.800 216.200 C 152.472 214.872, 150.691 214.642, 149.667 215.667 M 162 218 C 162 219.650, 162.450 221, 163 221 C 163.550 221, 164 220.100, 164 219 C 164 216.272, 165.757 216.463, 166.294 219.250 L 166.728 221.500 166.864 219.250 C 167.026 216.568, 169 216.187, 169 218.838 L 169 220.676 172.500 220.808 L 176 220.939 176 217.970 L 176 215 173.893 215 C 172.451 215, 171.964 215.464, 172.349 216.468 C 172.659 217.275, 172.533 218.170, 172.070 218.457 C 171.607 218.743, 170.993 218.083, 170.707 216.989 L 170.187 215 166.094 215 L 162 215 162 218 M 219.709 215.624 C 219.319 216.014, 219 217.413, 219 218.733 L 219 221.133 221.750 220.816 L 224.500 220.500 224.500 218 C 224.500 215.522, 221.365 213.968, 219.709 215.624 M 226.136 218.180 C 226.232 220.528, 226.399 220.841, 226.706 219.250 C 227.243 216.463, 229 216.272, 229 219 L 229 221 232.500 221 C 235.993 221, 237.496 218.770, 234.750 217.662 L 233.500 217.158 234.750 217.079 C 236.844 216.947, 236.142 215, 234 215 C 231.756 215, 231.152 218.491, 233.250 219.338 C 234.024 219.650, 233.860 219.872, 232.820 219.921 C 231.807 219.969, 231.012 219.106, 230.820 217.750 C 230.614 216.304, 229.696 215.386, 228.250 215.180 L 226 214.861 226.136 218.180" stroke="none" fill="#060504" fill-rule="evenodd"/></svg>