<svg xmlns="http://www.w3.org/2000/svg" width="612" height="611" viewBox="0 0 612 611" version="1.1"><path d="M 275.722 5.044 C 255.690 6.707, 226.228 13.742, 202 22.649 C 187.882 27.838, 158.117 42.750, 144.765 51.321 C 67.609 100.852, 18.065 180.323, 7.505 271.494 C 5.567 288.225, 5.565 319.752, 7.502 336.506 C 22.391 465.346, 112.691 566.872, 240.061 597.975 C 257.350 602.197, 274.046 603.497, 311 603.498 C 340.349 603.500, 344.667 603.284, 355.538 601.271 C 416.466 589.991, 466.627 564.686, 511.593 522.547 C 550.557 486.033, 580.529 435.998, 595.486 382.500 C 603.347 354.382, 603.362 354.258, 603.783 313.500 C 604.341 259.556, 602.778 247.667, 590.066 209.132 C 578.139 172.977, 558.591 138.472, 533.400 109.108 C 487.099 55.137, 424.815 19.795, 353.352 6.943 C 343.590 5.187, 336.651 4.753, 314 4.480 C 298.875 4.298, 281.650 4.552, 275.722 5.044 M 272 42.090 C 262.956 43.253, 248.284 46.468, 233.394 50.548 C 174.657 66.646, 122.689 104.277, 87.074 156.500 C 65.463 188.189, 50.522 226.053, 44.440 264.542 C 40.813 287.497, 41.536 328.005, 46.015 352.812 C 54.760 401.241, 74.542 441.627, 108.112 479.590 C 154.130 531.628, 211.461 560.892, 281.395 568.042 C 296.309 569.567, 331.653 568.753, 345.500 566.566 C 402.744 557.526, 455.647 530.098, 495.619 488.734 C 514.611 469.081, 528.465 449.606, 540.964 424.991 C 556.484 394.428, 564.575 367.449, 568.553 333 C 570.577 315.470, 570.074 282.343, 567.534 266 C 553.001 172.456, 491.456 94.360, 404.911 59.645 C 379.657 49.515, 354.498 43.567, 330.259 41.997 C 312.746 40.863, 281.149 40.913, 272 42.090 M 225.500 93.062 C 217.459 94.145, 204.202 98.099, 191.734 103.131 C 186.105 105.404, 179.700 107.912, 177.500 108.707 C 167.812 112.204, 143.803 134.161, 132.838 149.552 C 121.643 165.265, 113.843 183.142, 110.040 201.804 C 108.269 210.494, 107.998 214.971, 108.229 231.751 L 108.500 251.480 121.894 227.490 C 157.054 164.517, 164.746 150.645, 170.645 139.565 C 174.140 133, 177 127.340, 177 126.985 C 177 126.631, 175.995 126.377, 174.767 126.421 C 173.445 126.468, 172.502 125.888, 172.456 125 C 172.337 122.735, 174.002 121, 176.294 121 C 177.421 121, 180.206 119.056, 182.483 116.679 C 188.775 110.112, 190 110.007, 190 116.031 L 190 121 195.918 121 C 199.173 121, 202.544 120.729, 203.409 120.397 C 204.273 120.065, 206.631 117.027, 208.649 113.647 C 213.376 105.725, 214.897 104, 217.155 104 C 219.846 104, 219.426 106.626, 215.598 113.727 L 212.242 119.955 215.527 120.571 C 217.334 120.910, 223.638 121.033, 229.536 120.844 C 239.350 120.529, 240.385 120.309, 241.751 118.250 C 243.615 115.440, 244.710 115.420, 246.926 118.157 C 248.454 120.044, 250.173 120.422, 260.637 121.172 C 267.217 121.644, 286.078 121.911, 302.550 121.765 L 332.500 121.500 327.500 117.755 C 316.609 109.598, 293.171 99.171, 277.623 95.565 C 263.803 92.360, 239.408 91.188, 225.500 93.062 M 188.205 126.712 C 185.863 127.160, 180.868 133.264, 177.463 139.839 C 176.421 141.853, 172.799 148.450, 169.415 154.500 C 135.095 215.854, 109.007 264.360, 109.049 266.738 C 109.077 268.257, 110.764 272.726, 112.799 276.669 L 116.500 283.838 146 229.745 C 162.225 199.994, 180.457 166.391, 186.516 155.072 C 192.576 143.753, 198.532 132.875, 199.753 130.899 C 200.974 128.923, 201.679 127.013, 201.320 126.653 C 200.618 125.951, 191.977 125.990, 188.205 126.712 M 214 128.750 L 207.500 129.108 197.880 146.804 C 192.589 156.537, 172.885 193.001, 154.093 227.837 L 119.925 291.173 123.401 297.337 C 125.314 300.726, 128.418 305.919, 130.299 308.876 L 133.721 314.252 140.520 301.876 C 144.260 295.069, 157.526 271.050, 170.001 248.500 C 203.567 187.826, 214.754 167.046, 218.535 158.348 L 221.932 150.534 219.716 149.348 C 215.277 146.972, 217.160 143.503, 223.396 142.568 C 225.949 142.185, 228.559 141.011, 229.751 139.709 C 231.599 137.691, 236 129.825, 236 128.540 C 236 127.995, 225.963 128.091, 214 128.750 M 241.698 132.110 C 237.303 139.672, 236.453 142.044, 237.832 142.896 C 238.502 143.310, 253.326 143.729, 270.775 143.827 C 288.224 143.926, 314.391 144.297, 328.924 144.652 L 355.349 145.299 353.252 142.399 C 352.099 140.805, 348.677 137.072, 345.648 134.104 L 340.141 128.708 292.195 128.213 L 244.249 127.719 241.698 132.110 M 293.089 151 L 230.679 151.500 206.766 194.500 C 193.613 218.150, 172.728 255.865, 160.355 278.310 L 137.858 319.120 141.571 323.652 C 148.734 332.393, 165.773 345.733, 180 353.736 C 188.121 358.304, 201.356 363.543, 210.978 365.997 C 240.734 373.586, 291.036 375.169, 320.895 369.456 C 329.909 367.731, 333.168 365.024, 341.914 352 C 359.170 326.303, 374.881 291.837, 381.571 265 C 383.662 256.615, 384.702 218.762, 383.158 207.285 C 382.565 202.878, 380.690 194.936, 378.993 189.636 C 375.940 180.106, 375.871 180, 372.703 179.995 C 351.670 179.958, 261.359 177.751, 251.439 177.031 C 237.860 176.045, 234.630 175.407, 235.565 173.895 C 235.882 173.382, 265.145 173, 304.059 173 C 341.427 173, 372 172.692, 372 172.314 C 372 171.937, 371.176 170.700, 370.170 169.564 C 369.163 168.429, 367.817 165.660, 367.178 163.411 C 365.615 157.911, 360.731 151.358, 357.841 150.884 C 356.553 150.673, 327.415 150.725, 293.089 151 M 364.270 362.986 C 348.961 366.253, 342.388 375.595, 345.054 390.296 C 349.970 417.408, 381.754 448.652, 414.549 458.610 C 422.289 460.961, 425.327 461.340, 437 461.414 C 452.875 461.515, 457.854 460.118, 463.370 454.012 C 469.062 447.712, 470.429 439.177, 467.388 428.932 C 459.201 401.355, 426.756 372.725, 394.956 365.019 C 385.203 362.655, 370.412 361.676, 364.270 362.986 M 331.382 427.503 C 317.573 434.314, 307.041 453.494, 307.012 471.884 C 306.997 481.111, 308.435 486.014, 312.553 490.775 C 315.543 494.232, 316.162 494.497, 321.155 494.452 C 336.008 494.318, 348.595 480.313, 354.174 457.715 C 356.639 447.729, 356.205 442.707, 352.201 434.881 C 347.400 425.498, 340.444 423.033, 331.382 427.503" stroke="none" fill="#ffffff" fill-rule="evenodd"/><path d="M 266 1.006 C 242.258 3.416, 208.508 12.992, 182.345 24.742 C 147.278 40.490, 118.261 60.529, 90.895 87.895 C 67.442 111.348, 49.642 135.580, 35.273 163.615 C 10.554 211.845, -0.118 258.727, 1.291 312.909 C 2.134 345.353, 6.517 370.584, 16.508 400.500 C 32.765 449.183, 57.622 488.889, 94.172 524.560 C 142.226 571.457, 204.215 600.638, 272.494 608.503 C 289.583 610.472, 321.706 610.437, 339 608.432 C 423.724 598.608, 498.669 555.557, 550.392 487 C 567.210 464.709, 577.948 445.748, 588.004 420.586 C 604.202 380.058, 611.932 337.665, 610.701 296.101 C 608.714 228.965, 586.243 166.991, 545.037 115 C 534.403 101.582, 507.487 74.645, 494.298 64.221 C 459.329 36.584, 419.804 17.194, 376.756 6.559 C 368.915 4.622, 358 2.552, 352.500 1.959 C 339.616 0.570, 277.083 -0.119, 266 1.006 M 284.154 4.096 C 243.601 6.203, 195.983 20.816, 157.415 42.991 C 133.452 56.768, 116.174 69.905, 95.639 89.962 C 43.677 140.712, 12.617 206.589, 6.038 280 C 1.340 332.417, 12.866 390.866, 37.647 440.279 C 52.697 470.289, 71.062 495.120, 96.635 520.034 C 112.095 535.095, 122.358 543.432, 139 554.447 C 169.175 574.420, 201.800 588.877, 237 597.874 C 251.375 601.548, 260.765 602.681, 288.500 604.086 C 325.785 605.975, 348.847 604.131, 377.779 596.945 C 430.894 583.754, 478.458 556.620, 518.056 516.923 C 560.702 474.169, 589.908 419.040, 602.062 358.353 C 606.425 336.563, 605.753 269.948, 600.926 245.869 C 596.156 222.076, 584.791 190.126, 572.739 166.628 C 535.193 93.426, 466.859 37.151, 388 14.489 C 353.127 4.468, 327.114 1.865, 284.154 4.096 M 283 42.085 C 262.132 43.049, 233.098 49.819, 208.389 59.480 C 175.221 72.449, 146.652 91.344, 119.941 117.977 C 105.100 132.776, 97.553 141.920, 86.415 158.598 C 66.012 189.151, 51.876 224.709, 45.520 261.473 C 41.687 283.637, 41.680 322.920, 45.505 346.688 C 51.504 383.968, 64.745 418.384, 84.868 448.998 C 102.730 476.175, 134.417 507.882, 162 526.181 C 195.079 548.126, 232.477 561.501, 276.500 567.131 C 291.256 569.019, 325.846 568.750, 340.500 566.635 C 383.661 560.405, 421.933 545.472, 456.894 521.219 C 470.153 512.020, 481.684 502.088, 495.040 488.361 C 535.828 446.438, 560.683 393.741, 568.080 333.500 C 569.658 320.650, 569.688 288.388, 568.134 275.500 C 562.031 224.881, 542.560 178.052, 511.379 139 C 503.094 128.623, 483.176 108.565, 473 100.350 C 443.319 76.389, 408.210 58.634, 372.321 49.436 C 352.694 44.406, 342.711 43.019, 322 42.444 C 311.825 42.162, 301.925 41.825, 300 41.696 C 298.075 41.566, 290.425 41.741, 283 42.085 M 281 46.762 C 274.074 47.386, 254.274 51.159, 243 54.003 C 176.176 70.860, 120.446 111.955, 84.831 170.635 C 46.159 234.353, 36.739 311.626, 59.114 381.612 C 87.381 470.033, 156.137 534.670, 245 556.361 C 267.797 561.926, 273.419 562.503, 304 562.411 C 344.036 562.291, 361.458 559.614, 391.500 548.967 C 442.079 531.041, 488.757 495.617, 517.936 453.014 C 529.380 436.305, 544.752 404.520, 552.523 381.500 C 565.625 342.681, 568.105 291.907, 558.916 250.612 C 548.280 202.818, 525.773 160.472, 493.008 126.605 C 470.754 103.603, 447.376 86.626, 418.500 72.496 C 391.592 59.329, 367.594 51.736, 344.500 49.083 C 323.853 46.710, 293.779 45.611, 281 46.762 M 210.450 111.982 C 206.329 119.126, 205.427 120.077, 201.868 121.035 C 199.681 121.624, 195.871 121.803, 193.403 121.433 L 188.913 120.760 189.570 116.380 C 190.439 110.584, 188.621 110.568, 183.805 116.328 C 181.670 118.883, 178.820 121.049, 176.850 121.614 C 173.038 122.707, 171.594 126, 174.927 126 C 176.067 126, 176.999 126.563, 176.998 127.250 C 176.994 129.859, 167.109 148.005, 119.659 232.500 C 75.483 311.164, 66 329.011, 66 333.485 C 66 337.133, 67.510 336.584, 70.769 331.750 C 74.090 326.822, 73.458 327.954, 100.229 279 C 160.439 168.901, 181.353 131.556, 184.648 128.261 C 186.602 126.307, 187.948 126, 194.562 126 C 201.431 126, 202.147 126.179, 201.562 127.750 C 200.622 130.270, 177.354 173.609, 158.476 208 C 149.570 224.225, 139.002 243.575, 134.992 251 C 130.982 258.425, 120.947 276.650, 112.692 291.500 C 84.605 342.028, 79.609 352.800, 84.717 351.816 C 87.223 351.333, 90.086 346.558, 106.485 315.500 C 127.355 275.973, 202.731 136.229, 205.520 131.893 L 207.839 128.286 222.170 127.755 C 230.051 127.464, 236.643 127.355, 236.817 127.513 C 237.401 128.043, 231.806 138.471, 229.715 140.750 C 228.417 142.166, 226.489 143, 224.517 143 C 220.542 143, 217.463 145.159, 218.306 147.355 C 218.653 148.260, 219.626 149, 220.469 149 C 221.351 149, 222 149.878, 222 151.072 C 222 153.585, 206.748 183.379, 189.786 214 C 116.768 345.820, 105.910 366.137, 108.088 366.863 C 110.817 367.772, 113.827 362.871, 137.480 319 C 151.242 293.473, 177.740 245.417, 212.195 183.500 L 230.558 150.500 293.529 150.526 C 328.163 150.540, 389.685 150.765, 430.245 151.026 C 479.022 151.339, 504.008 151.162, 504.046 150.500 C 504.077 149.950, 502.617 149.191, 500.801 148.812 C 491.910 146.958, 441.830 145.773, 344.750 145.119 C 270.829 144.621, 237.670 144.070, 236.925 143.325 C 235.664 142.064, 242.184 128.251, 244.450 127.381 C 245.209 127.090, 277.481 127.338, 316.165 127.933 C 394.995 129.144, 473.864 129.373, 476.407 128.397 C 479.382 127.256, 477.472 125.520, 472.420 124.773 C 469.714 124.372, 420.025 123.600, 362 123.057 C 303.975 122.513, 254.512 121.649, 252.082 121.138 C 249.518 120.597, 246.972 119.288, 246.012 118.016 L 244.360 115.826 242.881 118.053 C 241.768 119.729, 239.929 120.485, 235.451 121.107 C 228.807 122.031, 213.225 121.173, 212.400 119.838 C 212.107 119.364, 213.247 116.564, 214.934 113.616 C 216.620 110.668, 218 107.299, 218 106.128 C 218 101.821, 214.944 104.190, 210.450 111.982 M 248 173.895 C 216.879 175.401, 258.188 177.497, 348.400 178.991 C 418.415 180.151, 507.597 180.213, 510.427 179.105 C 512.161 178.425, 512.185 178.285, 510.664 177.701 C 506.841 176.234, 491.046 175.102, 467 174.570 C 428.446 173.718, 262.248 173.206, 248 173.895" stroke="none" fill="#0e7b75" fill-rule="evenodd"/><path d="M 280.762 4.707 C 282.006 4.946, 283.806 4.937, 284.762 4.687 C 285.718 4.437, 284.700 4.241, 282.500 4.252 C 280.300 4.263, 279.518 4.468, 280.762 4.707 M 332.762 4.707 C 334.006 4.946, 335.806 4.937, 336.762 4.687 C 337.718 4.437, 336.700 4.241, 334.500 4.252 C 332.300 4.263, 331.518 4.468, 332.762 4.707 M 279.750 41.706 C 280.988 41.944, 283.012 41.944, 284.250 41.706 C 285.488 41.467, 284.475 41.272, 282 41.272 C 279.525 41.272, 278.512 41.467, 279.750 41.706 M 310.728 41.722 C 312.503 41.943, 315.653 41.946, 317.728 41.730 C 319.802 41.513, 318.350 41.333, 314.500 41.328 C 310.650 41.324, 308.952 41.501, 310.728 41.722 M 223 77.409 C 179.406 85.170, 138.905 111.707, 115.555 147.808 C 107.002 161.031, 98.169 181.579, 95.029 195.558 C 92.199 208.153, 92.183 249.595, 95.002 264.863 C 96.581 273.417, 96.347 273.544, 103.628 260.203 L 108.156 251.906 108.042 232.039 C 107.946 215.485, 108.277 210.455, 110.025 201.879 C 113.843 183.142, 121.627 165.287, 132.838 149.552 C 143.803 134.161, 167.812 112.204, 177.500 108.707 C 179.700 107.912, 186.105 105.404, 191.734 103.131 C 211.680 95.080, 225.254 92.091, 242.144 92.031 C 252.834 91.993, 269.287 93.632, 277.623 95.565 C 293.171 99.171, 316.609 109.598, 327.500 117.755 L 332.500 121.500 315.500 122.037 L 298.500 122.574 311.091 122.787 C 326.072 123.040, 354.030 121.936, 353.928 121.094 C 353.779 119.859, 338.224 106.786, 331.808 102.503 C 316.108 92.023, 293.916 82.927, 274.151 78.871 C 261.579 76.291, 233.747 75.496, 223 77.409 M 101.946 83.750 L 98.500 87.500 102.250 84.054 C 105.740 80.846, 106.460 80, 105.696 80 C 105.529 80, 103.842 81.688, 101.946 83.750 M 517 91.500 C 521.651 96.175, 525.681 100, 525.956 100 C 526.231 100, 522.651 96.175, 518 91.500 C 513.349 86.825, 509.319 83, 509.044 83 C 508.769 83, 512.349 86.825, 517 91.500 M 83.946 101.750 L 80.500 105.500 84.250 102.054 C 87.740 98.846, 88.460 98, 87.696 98 C 87.529 98, 85.842 99.688, 83.946 101.750 M 485 110.275 C 485 110.426, 488.488 113.914, 492.750 118.025 L 500.500 125.500 493.025 117.750 C 486.082 110.552, 485 109.544, 485 110.275 M 118.473 118.250 L 111.500 125.500 118.750 118.527 C 122.737 114.692, 126 111.429, 126 111.277 C 126 110.543, 124.950 111.516, 118.473 118.250 M 259.264 121.718 C 260.784 121.947, 263.034 121.941, 264.264 121.704 C 265.494 121.467, 264.250 121.279, 261.500 121.286 C 258.750 121.294, 257.744 121.488, 259.264 121.718 M 243.651 127.750 C 243.394 128.162, 247.080 128.380, 251.842 128.232 C 267.115 127.760, 268.830 127.354, 256.309 127.175 C 249.604 127.079, 243.908 127.338, 243.651 127.750 M 211.768 128.725 C 213.565 128.947, 216.265 128.943, 217.768 128.715 C 219.271 128.486, 217.800 128.304, 214.500 128.310 C 211.200 128.315, 209.971 128.502, 211.768 128.725 M 324.750 128.737 C 327.637 128.939, 332.363 128.939, 335.250 128.737 C 338.137 128.535, 335.775 128.370, 330 128.370 C 324.225 128.370, 321.863 128.535, 324.750 128.737 M 348.151 136.945 L 355.500 144.890 364.372 144.945 L 373.244 145 371.612 142.750 C 370.714 141.512, 369.507 139.375, 368.929 138 C 368.350 136.625, 366.467 134.037, 364.742 132.250 L 361.608 129 351.205 129 L 340.803 129 348.151 136.945 M 280.812 144.748 C 289.233 144.916, 302.733 144.915, 310.812 144.748 C 318.890 144.580, 312 144.443, 295.500 144.443 C 279 144.444, 272.390 144.581, 280.812 144.748 M 230.654 150.750 C 230.233 151.431, 271.979 151.420, 323.500 150.726 C 334.500 150.577, 318.214 150.354, 287.309 150.228 C 256.404 150.103, 230.909 150.338, 230.654 150.750 M 362.631 154.582 C 364.134 156.553, 366.085 160.296, 366.967 162.901 C 367.849 165.507, 369.519 168.844, 370.679 170.319 C 372.636 172.807, 373.335 173, 380.394 173 C 384.888 173, 388 172.583, 388 171.982 C 388 171.422, 385.746 166.472, 382.991 160.982 L 377.982 151 368.940 151 L 359.898 151 362.631 154.582 M 238.750 173.723 C 240.537 173.945, 243.463 173.945, 245.250 173.723 C 247.037 173.502, 245.575 173.320, 242 173.320 C 238.425 173.320, 236.963 173.502, 238.750 173.723 M 260.768 177.725 C 262.565 177.947, 265.265 177.943, 266.768 177.715 C 268.271 177.486, 266.800 177.304, 263.500 177.310 C 260.200 177.315, 258.971 177.502, 260.768 177.725 M 296.250 178.739 C 299.413 178.937, 304.587 178.937, 307.750 178.739 C 310.913 178.541, 308.325 178.378, 302 178.378 C 295.675 178.378, 293.087 178.541, 296.250 178.739 M 355.250 179.742 C 358.962 179.934, 365.038 179.934, 368.750 179.742 C 372.462 179.549, 369.425 179.392, 362 179.392 C 354.575 179.392, 351.538 179.549, 355.250 179.742 M 376.293 181.321 C 378.973 188.304, 382.299 200.901, 383.168 207.358 C 384.702 218.763, 383.653 256.649, 381.571 265 C 374.881 291.837, 359.170 326.303, 341.914 352 C 333.168 365.024, 329.909 367.731, 320.895 369.456 C 291.046 375.167, 240.794 373.588, 210.978 366.002 C 187.777 360.099, 164.650 346.633, 146.179 328.272 C 141.602 323.722, 137.753 320, 137.627 320 C 137.500 320, 135.845 322.911, 133.948 326.468 L 130.500 332.936 138 340.551 C 157.371 360.217, 178.242 372.196, 208.441 380.978 C 229.534 387.112, 239.906 388.400, 268.500 388.436 C 292.586 388.467, 308.004 387.354, 324.610 384.386 C 327.699 383.834, 327.724 383.864, 328.410 389.036 C 328.790 391.899, 330.151 397.550, 331.435 401.592 L 333.770 408.943 327.319 412.489 C 310.041 421.986, 299.607 434.349, 294.358 451.543 C 292.950 456.153, 292.534 460.891, 292.519 472.500 C 292.497 489.765, 292.670 490.289, 301.537 499.867 C 308.768 507.677, 314.303 510.377, 322.938 510.306 C 332.098 510.231, 340.002 506.444, 349 497.819 C 360.311 486.976, 366.827 474.896, 369.282 460.220 L 370.500 452.940 377.841 457.468 C 394.977 468.036, 405.970 472.801, 420.457 475.940 C 452.706 482.927, 477.275 471.605, 483.621 446.833 C 488.099 429.356, 477.679 405.378, 456.536 384.500 C 436.465 364.682, 412.604 351.906, 387.476 347.524 C 382.670 346.686, 376.124 346, 372.928 346 C 369.733 346, 366.836 345.543, 366.491 344.985 C 366.146 344.427, 369.930 335.764, 374.899 325.735 C 384.452 306.456, 390.266 290.895, 394.977 272 C 399.614 253.402, 400.486 246.555, 400.455 229 C 400.424 211.387, 399.742 206.731, 394.773 190.250 L 391.683 180 383.734 180 C 377.558 180, 375.899 180.295, 376.293 181.321 M 104.311 272.397 C 100.506 279.403, 100.150 280.665, 100.419 286.185 C 100.633 290.558, 101.176 292.519, 102.358 293.180 C 103.261 293.686, 104.711 295.475, 105.581 297.157 C 107.430 300.732, 107.472 300.692, 113.013 290.190 L 116.342 283.881 112.702 276.190 C 110.699 271.961, 108.935 267.642, 108.780 266.593 C 108.596 265.337, 107.070 267.319, 104.311 272.397 M 569.252 287.500 C 569.263 289.700, 569.468 290.482, 569.707 289.238 C 569.946 287.994, 569.937 286.194, 569.687 285.238 C 569.437 284.282, 569.241 285.300, 569.252 287.500 M 604.432 308 C 604.432 321.475, 604.574 326.988, 604.747 320.250 C 604.920 313.512, 604.920 302.488, 604.747 295.750 C 604.574 289.012, 604.432 294.525, 604.432 308 M 5.392 304 C 5.392 311.425, 5.549 314.462, 5.742 310.750 C 5.934 307.038, 5.934 300.962, 5.742 297.250 C 5.549 293.538, 5.392 296.575, 5.392 304 M 115.710 298.870 C 113.670 302.648, 112.001 306.360, 112.001 307.120 C 112.002 307.879, 113.171 309.850, 114.599 311.500 C 116.027 313.150, 118.232 316.525, 119.499 319 C 120.766 321.475, 122.859 324.469, 124.151 325.654 L 126.500 327.807 130.636 320.415 C 132.910 316.350, 134.439 313.229, 134.032 313.480 C 133.626 313.731, 130.415 309.024, 126.897 303.018 C 123.378 297.013, 120.257 292.078, 119.960 292.050 C 119.664 292.023, 117.751 295.091, 115.710 298.870 M 0.360 304 C 0.360 309.225, 0.529 311.363, 0.735 308.750 C 0.941 306.137, 0.941 301.863, 0.735 299.250 C 0.529 296.637, 0.360 298.775, 0.360 304 M 611.343 305.500 C 611.346 309.900, 611.522 311.576, 611.733 309.224 C 611.945 306.872, 611.942 303.272, 611.727 301.224 C 611.512 299.176, 611.339 301.100, 611.343 305.500 M 42.272 320 C 42.272 322.475, 42.467 323.488, 42.706 322.250 C 42.944 321.012, 42.944 318.988, 42.706 317.750 C 42.467 316.512, 42.272 317.525, 42.272 320 M 364.270 362.986 C 348.961 366.253, 342.388 375.595, 345.054 390.296 C 349.970 417.408, 381.754 448.652, 414.549 458.610 C 422.289 460.961, 425.327 461.340, 437 461.414 C 452.875 461.515, 457.854 460.118, 463.370 454.012 C 469.062 447.712, 470.429 439.177, 467.388 428.932 C 459.201 401.355, 426.756 372.725, 394.956 365.019 C 385.203 362.655, 370.412 361.676, 364.270 362.986 M 331.382 427.503 C 317.573 434.314, 307.041 453.494, 307.012 471.884 C 306.997 481.111, 308.435 486.014, 312.553 490.775 C 315.543 494.232, 316.162 494.497, 321.155 494.452 C 336.008 494.318, 348.595 480.313, 354.174 457.715 C 356.639 447.729, 356.205 442.707, 352.201 434.881 C 347.400 425.498, 340.444 423.033, 331.382 427.503 M 112 484.275 C 112 484.426, 115.487 487.914, 119.750 492.025 L 127.500 499.500 120.025 491.750 C 113.082 484.552, 112 483.544, 112 484.275 M 84 507.500 C 85.866 509.425, 87.617 511, 87.892 511 C 88.167 511, 86.866 509.425, 85 507.500 C 83.134 505.575, 81.383 504, 81.108 504 C 80.833 504, 82.134 505.575, 84 507.500 M 102 525.500 C 103.866 527.425, 105.617 529, 105.892 529 C 106.167 529, 104.866 527.425, 103 525.500 C 101.134 523.575, 99.383 522, 99.108 522 C 98.833 522, 100.134 523.575, 102 525.500 M 280.762 603.707 C 282.006 603.946, 283.806 603.937, 284.762 603.687 C 285.718 603.437, 284.700 603.241, 282.500 603.252 C 280.300 603.263, 279.518 603.468, 280.762 603.707 M 312.750 604.706 C 313.988 604.944, 316.012 604.944, 317.250 604.706 C 318.488 604.467, 317.475 604.272, 315 604.272 C 312.525 604.272, 311.512 604.467, 312.750 604.706" stroke="none" fill="#8acfbc" fill-rule="evenodd"/><path d="M 304.287 3.740 C 307.469 3.939, 312.419 3.937, 315.287 3.736 C 318.154 3.535, 315.550 3.372, 309.500 3.374 C 303.450 3.376, 301.104 3.541, 304.287 3.740 M 288.250 41.716 C 289.762 41.945, 292.238 41.945, 293.750 41.716 C 295.262 41.487, 294.025 41.300, 291 41.300 C 287.975 41.300, 286.738 41.487, 288.250 41.716 M 300.250 41.716 C 301.762 41.945, 304.238 41.945, 305.750 41.716 C 307.262 41.487, 306.025 41.300, 303 41.300 C 299.975 41.300, 298.738 41.487, 300.250 41.716 M 281 46.762 C 274.074 47.386, 254.274 51.159, 243 54.003 C 176.176 70.860, 120.446 111.955, 84.831 170.635 C 46.159 234.353, 36.739 311.626, 59.114 381.612 C 87.381 470.033, 156.137 534.670, 245 556.361 C 267.797 561.926, 273.419 562.503, 304 562.411 C 344.036 562.291, 361.458 559.614, 391.500 548.967 C 442.079 531.041, 488.757 495.617, 517.936 453.014 C 529.380 436.305, 544.752 404.520, 552.523 381.500 C 565.625 342.681, 568.105 291.907, 558.916 250.612 C 548.280 202.818, 525.773 160.472, 493.008 126.605 C 470.754 103.603, 447.376 86.626, 418.500 72.496 C 391.592 59.329, 367.594 51.736, 344.500 49.083 C 323.853 46.710, 293.779 45.611, 281 46.762 M 223 77.409 C 179.406 85.170, 138.905 111.707, 115.555 147.808 C 107.002 161.031, 98.169 181.579, 95.029 195.558 C 91.173 212.724, 93.045 273.945, 97.345 271.287 C 97.915 270.934, 97.450 272.188, 96.311 274.073 C 92.511 280.359, 76.313 310.366, 71.123 320.732 C 66.329 330.307, 64.766 336, 66.932 336 C 68.547 336, 72.110 330.197, 86.130 304.728 L 99.766 279.955 100.418 284.304 C 100.777 286.696, 100.795 289.371, 100.458 290.250 C 100.073 291.253, 100.575 292.237, 101.808 292.897 C 102.888 293.475, 104.650 295.436, 105.722 297.254 L 107.673 300.560 103.232 308.530 C 92.238 328.258, 83 346.890, 83 349.333 C 83 352.698, 85.206 352.824, 87.739 349.604 C 88.776 348.287, 94.525 337.989, 100.516 326.721 C 110.805 307.368, 111.478 306.367, 112.658 308.642 C 113.345 309.967, 114.621 311.764, 115.493 312.636 C 116.365 313.508, 118.141 316.309, 119.440 318.861 C 120.739 321.412, 122.912 324.535, 124.268 325.799 L 126.734 328.099 119.372 341.913 C 109.233 360.940, 106.608 367, 108.506 367 C 110.564 367, 114.283 361.551, 122.892 345.920 L 130.283 332.500 137.892 340.357 C 156.839 359.924, 178.061 372.143, 208.441 380.978 C 229.534 387.112, 239.906 388.400, 268.500 388.436 C 292.586 388.467, 308.004 387.354, 324.610 384.386 C 327.699 383.834, 327.724 383.864, 328.410 389.036 C 328.790 391.899, 330.151 397.550, 331.435 401.592 L 333.770 408.943 327.319 412.489 C 310.041 421.986, 299.607 434.349, 294.358 451.543 C 292.950 456.153, 292.534 460.891, 292.519 472.500 C 292.497 489.765, 292.670 490.289, 301.537 499.867 C 308.768 507.677, 314.303 510.377, 322.938 510.306 C 332.098 510.231, 340.002 506.444, 349 497.819 C 360.311 486.976, 366.827 474.896, 369.282 460.220 L 370.500 452.940 377.841 457.468 C 394.977 468.036, 405.970 472.801, 420.457 475.940 C 452.706 482.927, 477.275 471.605, 483.621 446.833 C 488.099 429.356, 477.679 405.378, 456.536 384.500 C 436.465 364.682, 412.604 351.906, 387.476 347.524 C 382.670 346.686, 376.124 346, 372.928 346 C 369.733 346, 366.836 345.543, 366.491 344.985 C 366.146 344.427, 369.930 335.764, 374.899 325.735 C 384.452 306.456, 390.266 290.895, 394.977 272 C 399.614 253.402, 400.486 246.555, 400.455 229 C 400.425 211.475, 399.710 206.537, 394.937 190.844 C 393.322 185.533, 392 180.920, 392 180.594 C 392 180.267, 418.212 179.968, 450.250 179.930 C 504.741 179.864, 517.334 179.354, 509.500 177.531 C 507.850 177.147, 505.825 176.614, 505 176.346 C 501.568 175.233, 452.986 174.015, 402.500 173.777 C 372.800 173.636, 357.387 173.395, 368.250 173.240 C 380.522 173.064, 388 172.580, 388 171.961 C 388 171.412, 385.781 166.542, 383.070 161.139 L 378.139 151.314 439.986 151.796 C 474.002 152.061, 502.621 151.976, 503.584 151.606 C 507.079 150.265, 503.265 148.922, 493.414 148.024 C 487.961 147.528, 458.750 146.575, 428.500 145.907 L 373.500 144.693 371.286 142.097 C 370.068 140.668, 369.056 138.939, 369.036 138.253 C 369.016 137.567, 367.371 135.203, 365.381 133 L 361.762 128.994 418.247 129.017 C 449.314 129.030, 475.486 128.751, 476.408 128.397 C 479.487 127.216, 477.394 125.508, 471.918 124.733 C 468.938 124.311, 436.575 123.599, 400 123.152 C 363.425 122.704, 338.113 122.262, 343.750 122.169 C 349.387 122.076, 353.968 121.662, 353.928 121.250 C 353.800 119.906, 338.670 107.084, 331.808 102.503 C 316.108 92.023, 293.916 82.927, 274.151 78.871 C 261.579 76.291, 233.747 75.496, 223 77.409 M 520 87.500 C 522.987 90.525, 525.657 93, 525.932 93 C 526.207 93, 523.987 90.525, 521 87.500 C 518.013 84.475, 515.343 82, 515.068 82 C 514.793 82, 517.013 84.475, 520 87.500 M 225.750 121.706 C 226.988 121.944, 229.012 121.944, 230.250 121.706 C 231.488 121.467, 230.475 121.272, 228 121.272 C 225.525 121.272, 224.512 121.467, 225.750 121.706 M 286.750 122.732 C 289.087 122.943, 292.913 122.943, 295.250 122.732 C 297.587 122.522, 295.675 122.349, 291 122.349 C 286.325 122.349, 284.413 122.522, 286.750 122.732 M 231.762 127.707 C 233.006 127.946, 234.806 127.937, 235.762 127.687 C 236.718 127.437, 235.700 127.241, 233.500 127.252 C 231.300 127.263, 230.518 127.468, 231.762 127.707 M 271.750 127.732 C 274.087 127.943, 277.913 127.943, 280.250 127.732 C 282.587 127.522, 280.675 127.349, 276 127.349 C 271.325 127.349, 269.413 127.522, 271.750 127.732 M 344.280 128.736 C 346.909 128.943, 350.959 128.940, 353.280 128.731 C 355.601 128.521, 353.450 128.352, 348.500 128.355 C 343.550 128.358, 341.651 128.530, 344.280 128.736 M 259.750 144.706 C 260.988 144.944, 263.012 144.944, 264.250 144.706 C 265.488 144.467, 264.475 144.272, 262 144.272 C 259.525 144.272, 258.512 144.467, 259.750 144.706 M 345.750 150.723 C 347.538 150.945, 350.462 150.945, 352.250 150.723 C 354.038 150.502, 352.575 150.320, 349 150.320 C 345.425 150.320, 343.962 150.502, 345.750 150.723 M 250.750 173.723 C 252.537 173.945, 255.463 173.945, 257.250 173.723 C 259.038 173.502, 257.575 173.320, 254 173.320 C 250.425 173.320, 248.963 173.502, 250.750 173.723 M 314.750 178.706 C 315.988 178.944, 318.012 178.944, 319.250 178.706 C 320.488 178.467, 319.475 178.272, 317 178.272 C 314.525 178.272, 313.512 178.467, 314.750 178.706 M 377.250 179.716 C 378.762 179.945, 381.238 179.945, 382.750 179.716 C 384.262 179.487, 383.025 179.300, 380 179.300 C 376.975 179.300, 375.738 179.487, 377.250 179.716 M 42.252 292.500 C 42.263 294.700, 42.468 295.482, 42.707 294.238 C 42.946 292.994, 42.937 291.194, 42.687 290.238 C 42.437 289.282, 42.241 290.300, 42.252 292.500 M 491.469 492.250 L 485.500 498.500 491.750 492.531 C 497.556 486.987, 498.458 486, 497.719 486 C 497.564 486, 494.751 488.813, 491.469 492.250 M 516.971 517.750 L 510.500 524.500 517.250 518.029 C 520.962 514.470, 524 511.432, 524 511.279 C 524 510.543, 522.982 511.480, 516.971 517.750 M 89.958 521.250 C 94.102 525.665, 95 526.459, 95 525.708 C 95 525.548, 92.862 523.410, 90.250 520.958 L 85.500 516.500 89.958 521.250 M 301.750 604.723 C 303.538 604.945, 306.462 604.945, 308.250 604.723 C 310.038 604.502, 308.575 604.320, 305 604.320 C 301.425 604.320, 299.962 604.502, 301.750 604.723 M 321.250 604.716 C 322.762 604.945, 325.238 604.945, 326.750 604.716 C 328.262 604.487, 327.025 604.300, 324 604.300 C 320.975 604.300, 319.738 604.487, 321.250 604.716 M 300.750 610.732 C 303.087 610.943, 306.913 610.943, 309.250 610.732 C 311.587 610.522, 309.675 610.349, 305 610.349 C 300.325 610.349, 298.413 610.522, 300.750 610.732" stroke="none" fill="#48c2c5" fill-rule="evenodd"/></svg>